<mxfile host="app.diagrams.net" agent="Mozilla/5.0 (Windows NT 10.0; Win64; x64) AppleWebKit/537.36 (KHTML, like Gecko) Chrome/133.0.0.0 Safari/537.36" version="26.0.13">
  <diagram id="C5RBs43oDa-KdzZeNtuy" name="Page-1">
    <mxGraphModel dx="2148" dy="1392" grid="1" gridSize="10" guides="1" tooltips="1" connect="1" arrows="1" fold="1" page="1" pageScale="1" pageWidth="1169" pageHeight="827" math="0" shadow="0">
      <root>
        <mxCell id="WIyWlLk6GJQsqaUBKTNV-0" />
        <mxCell id="WIyWlLk6GJQsqaUBKTNV-1" parent="WIyWlLk6GJQsqaUBKTNV-0" />
        <mxCell id="aYfPXwyvseCjfm_76mP0-267" value="" style="group" parent="WIyWlLk6GJQsqaUBKTNV-1" vertex="1" connectable="0">
          <mxGeometry x="770" y="11" width="456" height="403" as="geometry" />
        </mxCell>
        <mxCell id="aYfPXwyvseCjfm_76mP0-265" value="" style="rounded=0;whiteSpace=wrap;html=1;" parent="aYfPXwyvseCjfm_76mP0-267" vertex="1">
          <mxGeometry width="456" height="403" as="geometry" />
        </mxCell>
        <mxCell id="aYfPXwyvseCjfm_76mP0-263" value="" style="rounded=1;whiteSpace=wrap;html=1;dashed=1;dashPattern=1 4;" parent="aYfPXwyvseCjfm_76mP0-267" vertex="1">
          <mxGeometry x="21" y="258" width="205" height="102" as="geometry" />
        </mxCell>
        <mxCell id="aYfPXwyvseCjfm_76mP0-238" value="" style="sketch=0;pointerEvents=1;shadow=0;dashed=0;html=1;strokeColor=none;fillColor=#434445;aspect=fixed;labelPosition=center;verticalLabelPosition=bottom;verticalAlign=top;align=center;outlineConnect=0;shape=mxgraph.vvd.virtual_machine;" parent="aYfPXwyvseCjfm_76mP0-267" vertex="1">
          <mxGeometry x="27.5" y="270" width="50" height="50" as="geometry" />
        </mxCell>
        <mxCell id="aYfPXwyvseCjfm_76mP0-239" value="" style="sketch=0;pointerEvents=1;shadow=0;dashed=0;html=1;strokeColor=none;fillColor=#434445;aspect=fixed;labelPosition=center;verticalLabelPosition=bottom;verticalAlign=top;align=center;outlineConnect=0;shape=mxgraph.vvd.virtual_machine;" parent="aYfPXwyvseCjfm_76mP0-267" vertex="1">
          <mxGeometry x="97.5" y="270" width="50" height="50" as="geometry" />
        </mxCell>
        <mxCell id="aYfPXwyvseCjfm_76mP0-240" value="" style="sketch=0;pointerEvents=1;shadow=0;dashed=0;html=1;strokeColor=none;fillColor=#434445;aspect=fixed;labelPosition=center;verticalLabelPosition=bottom;verticalAlign=top;align=center;outlineConnect=0;shape=mxgraph.vvd.virtual_machine;" parent="aYfPXwyvseCjfm_76mP0-267" vertex="1">
          <mxGeometry x="167.5" y="270" width="50" height="50" as="geometry" />
        </mxCell>
        <mxCell id="aYfPXwyvseCjfm_76mP0-258" style="edgeStyle=orthogonalEdgeStyle;rounded=0;orthogonalLoop=1;jettySize=auto;html=1;" parent="aYfPXwyvseCjfm_76mP0-267" source="aYfPXwyvseCjfm_76mP0-241" edge="1">
          <mxGeometry relative="1" as="geometry">
            <mxPoint x="286" y="145" as="targetPoint" />
          </mxGeometry>
        </mxCell>
        <mxCell id="aYfPXwyvseCjfm_76mP0-255" value="" style="group" parent="aYfPXwyvseCjfm_76mP0-267" vertex="1" connectable="0">
          <mxGeometry x="296" y="10" width="142" height="223" as="geometry" />
        </mxCell>
        <mxCell id="aYfPXwyvseCjfm_76mP0-253" value="" style="group" parent="aYfPXwyvseCjfm_76mP0-255" vertex="1" connectable="0">
          <mxGeometry x="40.00000000000023" width="60" height="65" as="geometry" />
        </mxCell>
        <mxCell id="aYfPXwyvseCjfm_76mP0-242" value="" style="sketch=0;outlineConnect=0;fontColor=#232F3E;gradientColor=none;strokeColor=#232F3E;fillColor=#ffffff;dashed=0;verticalLabelPosition=bottom;verticalAlign=top;align=center;html=1;fontSize=12;fontStyle=0;aspect=fixed;shape=mxgraph.aws4.resourceIcon;resIcon=mxgraph.aws4.container_1;" parent="aYfPXwyvseCjfm_76mP0-253" vertex="1">
          <mxGeometry x="2.869999999999891" y="-2" width="54.25" height="54.25" as="geometry" />
        </mxCell>
        <mxCell id="aYfPXwyvseCjfm_76mP0-245" value="&lt;b&gt;&lt;font style=&quot;font-size: 14px;&quot;&gt;Containers&lt;/font&gt;&lt;/b&gt;" style="text;html=1;align=center;verticalAlign=middle;whiteSpace=wrap;rounded=0;" parent="aYfPXwyvseCjfm_76mP0-253" vertex="1">
          <mxGeometry y="35" width="60" height="30" as="geometry" />
        </mxCell>
        <mxCell id="aYfPXwyvseCjfm_76mP0-254" value="" style="group" parent="aYfPXwyvseCjfm_76mP0-255" vertex="1" connectable="0">
          <mxGeometry y="63" width="142" height="160" as="geometry" />
        </mxCell>
        <mxCell id="aYfPXwyvseCjfm_76mP0-247" value="App Web GLPI" style="rounded=0;whiteSpace=wrap;html=1;" parent="aYfPXwyvseCjfm_76mP0-254" vertex="1">
          <mxGeometry width="142" height="20" as="geometry" />
        </mxCell>
        <mxCell id="aYfPXwyvseCjfm_76mP0-248" value="SGBD MariaDB" style="rounded=0;whiteSpace=wrap;html=1;" parent="aYfPXwyvseCjfm_76mP0-254" vertex="1">
          <mxGeometry y="27" width="142" height="20" as="geometry" />
        </mxCell>
        <mxCell id="aYfPXwyvseCjfm_76mP0-249" value="Proxy Nginx" style="rounded=0;whiteSpace=wrap;html=1;" parent="aYfPXwyvseCjfm_76mP0-254" vertex="1">
          <mxGeometry y="54" width="142" height="20" as="geometry" />
        </mxCell>
        <mxCell id="aYfPXwyvseCjfm_76mP0-250" value="Storage NAS" style="rounded=0;whiteSpace=wrap;html=1;" parent="aYfPXwyvseCjfm_76mP0-254" vertex="1">
          <mxGeometry y="82" width="142" height="20" as="geometry" />
        </mxCell>
        <mxCell id="aYfPXwyvseCjfm_76mP0-251" value="Safe Credential" style="rounded=0;whiteSpace=wrap;html=1;" parent="aYfPXwyvseCjfm_76mP0-254" vertex="1">
          <mxGeometry y="111" width="142" height="20" as="geometry" />
        </mxCell>
        <mxCell id="aYfPXwyvseCjfm_76mP0-252" value="Backup Server" style="rounded=0;whiteSpace=wrap;html=1;" parent="aYfPXwyvseCjfm_76mP0-254" vertex="1">
          <mxGeometry y="140" width="142" height="20" as="geometry" />
        </mxCell>
        <mxCell id="aYfPXwyvseCjfm_76mP0-241" value="" style="sketch=0;pointerEvents=1;shadow=0;dashed=0;html=1;strokeColor=none;fillColor=#434445;aspect=fixed;labelPosition=center;verticalLabelPosition=bottom;verticalAlign=top;align=center;outlineConnect=0;shape=mxgraph.vvd.machine;" parent="aYfPXwyvseCjfm_76mP0-267" vertex="1">
          <mxGeometry x="108.14999999999986" y="110" width="28.7" height="70" as="geometry" />
        </mxCell>
        <mxCell id="aYfPXwyvseCjfm_76mP0-262" style="edgeStyle=orthogonalEdgeStyle;rounded=0;orthogonalLoop=1;jettySize=auto;html=1;" parent="aYfPXwyvseCjfm_76mP0-267" source="aYfPXwyvseCjfm_76mP0-256" edge="1">
          <mxGeometry relative="1" as="geometry">
            <mxPoint x="122.5" y="250" as="targetPoint" />
          </mxGeometry>
        </mxCell>
        <mxCell id="aYfPXwyvseCjfm_76mP0-256" value="Terraform" style="text;html=1;align=center;verticalAlign=middle;whiteSpace=wrap;rounded=0;fontStyle=1;fontSize=16;" parent="aYfPXwyvseCjfm_76mP0-267" vertex="1">
          <mxGeometry x="92.5" y="180" width="60" height="30" as="geometry" />
        </mxCell>
        <mxCell id="aYfPXwyvseCjfm_76mP0-259" value="&lt;span style=&quot;color: rgb(0, 0, 0); font-family: Helvetica; font-size: 12px; font-style: normal; font-variant-ligatures: normal; font-variant-caps: normal; font-weight: 400; letter-spacing: normal; orphans: 2; text-align: center; text-indent: 0px; text-transform: none; widows: 2; word-spacing: 0px; -webkit-text-stroke-width: 0px; white-space: normal; background-color: rgb(251, 251, 251); text-decoration-thickness: initial; text-decoration-style: initial; text-decoration-color: initial; float: none; display: inline !important;&quot;&gt;Vault&lt;/span&gt;" style="text;whiteSpace=wrap;html=1;" parent="aYfPXwyvseCjfm_76mP0-267" vertex="1">
          <mxGeometry x="35" y="318" width="41" height="30" as="geometry" />
        </mxCell>
        <mxCell id="aYfPXwyvseCjfm_76mP0-260" value="&lt;span style=&quot;color: rgb(0, 0, 0); font-family: Helvetica; font-size: 12px; font-style: normal; font-variant-ligatures: normal; font-variant-caps: normal; font-weight: 400; letter-spacing: normal; orphans: 2; text-align: center; text-indent: 0px; text-transform: none; widows: 2; word-spacing: 0px; -webkit-text-stroke-width: 0px; white-space: normal; background-color: rgb(251, 251, 251); text-decoration-thickness: initial; text-decoration-style: initial; text-decoration-color: initial; float: none; display: inline !important;&quot;&gt;Pfsense&lt;/span&gt;" style="text;whiteSpace=wrap;html=1;" parent="aYfPXwyvseCjfm_76mP0-267" vertex="1">
          <mxGeometry x="100" y="319" width="41" height="30" as="geometry" />
        </mxCell>
        <mxCell id="aYfPXwyvseCjfm_76mP0-261" value="&lt;span style=&quot;color: rgb(0, 0, 0); font-family: Helvetica; font-size: 12px; font-style: normal; font-variant-ligatures: normal; font-variant-caps: normal; font-weight: 400; letter-spacing: normal; orphans: 2; text-align: center; text-indent: 0px; text-transform: none; widows: 2; word-spacing: 0px; -webkit-text-stroke-width: 0px; white-space: normal; background-color: rgb(251, 251, 251); text-decoration-thickness: initial; text-decoration-style: initial; text-decoration-color: initial; float: none; display: inline !important;&quot;&gt;&amp;nbsp;Kali&lt;/span&gt;&lt;div&gt;&lt;span style=&quot;color: rgb(0, 0, 0); font-family: Helvetica; font-size: 12px; font-style: normal; font-variant-ligatures: normal; font-variant-caps: normal; font-weight: 400; letter-spacing: normal; orphans: 2; text-align: center; text-indent: 0px; text-transform: none; widows: 2; word-spacing: 0px; -webkit-text-stroke-width: 0px; white-space: normal; background-color: rgb(251, 251, 251); text-decoration-thickness: initial; text-decoration-style: initial; text-decoration-color: initial; float: none; display: inline !important;&quot;&gt;Linux&lt;/span&gt;&lt;/div&gt;" style="text;whiteSpace=wrap;html=1;" parent="aYfPXwyvseCjfm_76mP0-267" vertex="1">
          <mxGeometry x="176.5" y="318" width="41" height="30" as="geometry" />
        </mxCell>
        <mxCell id="aYfPXwyvseCjfm_76mP0-264" value="&lt;b style=&quot;forced-color-adjust: none; color: rgb(0, 0, 0); font-family: Helvetica; font-size: 12px; font-style: normal; font-variant-ligatures: normal; font-variant-caps: normal; letter-spacing: normal; orphans: 2; text-align: center; text-indent: 0px; text-transform: none; widows: 2; word-spacing: 0px; -webkit-text-stroke-width: 0px; white-space: normal; background-color: rgb(251, 251, 251); text-decoration-thickness: initial; text-decoration-style: initial; text-decoration-color: initial;&quot;&gt;&lt;font style=&quot;forced-color-adjust: none; font-size: 14px;&quot;&gt;KVM - Virtual Machines&lt;/font&gt;&lt;/b&gt;" style="text;whiteSpace=wrap;html=1;" parent="aYfPXwyvseCjfm_76mP0-267" vertex="1">
          <mxGeometry x="43.25" y="360" width="160" height="40" as="geometry" />
        </mxCell>
        <mxCell id="aYfPXwyvseCjfm_76mP0-266" value="provisioned by infrastructure as code" style="text;html=1;align=center;verticalAlign=middle;whiteSpace=wrap;rounded=0;fontStyle=1;fontSize=21;" parent="aYfPXwyvseCjfm_76mP0-267" vertex="1">
          <mxGeometry x="21" y="30" width="233.15" height="30" as="geometry" />
        </mxCell>
        <mxCell id="aYfPXwyvseCjfm_76mP0-270" value="" style="group" parent="WIyWlLk6GJQsqaUBKTNV-1" vertex="1" connectable="0">
          <mxGeometry x="32" y="910" width="680" height="440" as="geometry" />
        </mxCell>
        <mxCell id="aYfPXwyvseCjfm_76mP0-269" value="" style="rounded=0;whiteSpace=wrap;html=1;" parent="aYfPXwyvseCjfm_76mP0-270" vertex="1">
          <mxGeometry width="680" height="440" as="geometry" />
        </mxCell>
        <mxCell id="aYfPXwyvseCjfm_76mP0-103" style="edgeStyle=orthogonalEdgeStyle;rounded=0;orthogonalLoop=1;jettySize=auto;html=1;exitX=1;exitY=0.5;exitDx=0;exitDy=0;" parent="aYfPXwyvseCjfm_76mP0-270" source="aYfPXwyvseCjfm_76mP0-104" target="aYfPXwyvseCjfm_76mP0-106" edge="1">
          <mxGeometry relative="1" as="geometry" />
        </mxCell>
        <mxCell id="aYfPXwyvseCjfm_76mP0-104" value="&lt;font style=&quot;font-size: 16px;&quot;&gt;Application&lt;/font&gt;" style="rounded=1;whiteSpace=wrap;html=1;fillColor=#dae8fc;strokeColor=#6c8ebf;" parent="aYfPXwyvseCjfm_76mP0-270" vertex="1">
          <mxGeometry x="38.5" y="160" width="90" height="60" as="geometry" />
        </mxCell>
        <mxCell id="aYfPXwyvseCjfm_76mP0-105" style="edgeStyle=orthogonalEdgeStyle;rounded=0;orthogonalLoop=1;jettySize=auto;html=1;exitX=1;exitY=0.5;exitDx=0;exitDy=0;entryX=0;entryY=0.5;entryDx=0;entryDy=0;" parent="aYfPXwyvseCjfm_76mP0-270" source="aYfPXwyvseCjfm_76mP0-106" target="aYfPXwyvseCjfm_76mP0-108" edge="1">
          <mxGeometry relative="1" as="geometry" />
        </mxCell>
        <mxCell id="aYfPXwyvseCjfm_76mP0-106" value="&lt;font style=&quot;font-size: 16px;&quot;&gt;&lt;b&gt;NIA&lt;/b&gt;&lt;/font&gt;&lt;div&gt;&lt;font style=&quot;font-size: 16px;&quot;&gt;&lt;b&gt;Monitor&lt;/b&gt;&lt;/font&gt;&lt;/div&gt;" style="rounded=1;whiteSpace=wrap;html=1;fillColor=#f8cecc;strokeColor=#b85450;" parent="aYfPXwyvseCjfm_76mP0-270" vertex="1">
          <mxGeometry x="204.5" y="160" width="90" height="60" as="geometry" />
        </mxCell>
        <mxCell id="aYfPXwyvseCjfm_76mP0-107" style="edgeStyle=orthogonalEdgeStyle;rounded=0;orthogonalLoop=1;jettySize=auto;html=1;exitX=1;exitY=0.5;exitDx=0;exitDy=0;" parent="aYfPXwyvseCjfm_76mP0-270" source="aYfPXwyvseCjfm_76mP0-108" target="aYfPXwyvseCjfm_76mP0-110" edge="1">
          <mxGeometry relative="1" as="geometry" />
        </mxCell>
        <mxCell id="aYfPXwyvseCjfm_76mP0-108" value="&lt;font style=&quot;font-size: 16px;&quot;&gt;&lt;b&gt;NIA&amp;nbsp;&lt;/b&gt;&lt;/font&gt;&lt;div&gt;&lt;font style=&quot;font-size: 16px;&quot;&gt;&lt;b&gt;Agent&lt;/b&gt;&lt;/font&gt;&lt;/div&gt;" style="rounded=1;whiteSpace=wrap;html=1;fillColor=#f8cecc;strokeColor=#b85450;" parent="aYfPXwyvseCjfm_76mP0-270" vertex="1">
          <mxGeometry x="399.5" y="160" width="90" height="60" as="geometry" />
        </mxCell>
        <mxCell id="aYfPXwyvseCjfm_76mP0-109" style="edgeStyle=orthogonalEdgeStyle;rounded=0;orthogonalLoop=1;jettySize=auto;html=1;exitX=0.5;exitY=1;exitDx=0;exitDy=0;entryX=0.5;entryY=1;entryDx=0;entryDy=0;dashed=1;" parent="aYfPXwyvseCjfm_76mP0-270" source="aYfPXwyvseCjfm_76mP0-110" target="aYfPXwyvseCjfm_76mP0-104" edge="1">
          <mxGeometry relative="1" as="geometry">
            <Array as="points">
              <mxPoint x="617.5" y="240" />
              <mxPoint x="83.5" y="240" />
            </Array>
          </mxGeometry>
        </mxCell>
        <mxCell id="aYfPXwyvseCjfm_76mP0-110" value="&lt;font style=&quot;font-size: 16px;&quot;&gt;Resource&lt;/font&gt;" style="rounded=1;whiteSpace=wrap;html=1;fillColor=#dae8fc;strokeColor=#6c8ebf;" parent="aYfPXwyvseCjfm_76mP0-270" vertex="1">
          <mxGeometry x="572.5" y="160" width="90" height="60" as="geometry" />
        </mxCell>
        <mxCell id="aYfPXwyvseCjfm_76mP0-111" value="request access resource" style="text;html=1;align=center;verticalAlign=middle;whiteSpace=wrap;rounded=0;fontSize=10;" parent="aYfPXwyvseCjfm_76mP0-270" vertex="1">
          <mxGeometry x="122.5" y="160" width="89" height="30" as="geometry" />
        </mxCell>
        <mxCell id="aYfPXwyvseCjfm_76mP0-112" value="request HMAC with signature" style="text;html=1;align=center;verticalAlign=middle;whiteSpace=wrap;rounded=0;fontSize=10;" parent="aYfPXwyvseCjfm_76mP0-270" vertex="1">
          <mxGeometry x="290.5" y="160" width="110" height="30" as="geometry" />
        </mxCell>
        <mxCell id="aYfPXwyvseCjfm_76mP0-113" value="request with&amp;nbsp;&lt;div&gt;&lt;span style=&quot;background-color: transparent; color: light-dark(rgb(0, 0, 0), rgb(255, 255, 255));&quot;&gt;credential obfuscated&lt;/span&gt;&lt;/div&gt;" style="text;html=1;align=center;verticalAlign=middle;whiteSpace=wrap;rounded=0;fontSize=10;" parent="aYfPXwyvseCjfm_76mP0-270" vertex="1">
          <mxGeometry x="286.5" y="190" width="120" height="30" as="geometry" />
        </mxCell>
        <mxCell id="aYfPXwyvseCjfm_76mP0-114" value="validate HMAC&amp;nbsp;" style="text;html=1;align=center;verticalAlign=middle;whiteSpace=wrap;rounded=0;fontSize=10;" parent="aYfPXwyvseCjfm_76mP0-270" vertex="1">
          <mxGeometry x="486.5" y="166" width="89" height="30" as="geometry" />
        </mxCell>
        <mxCell id="aYfPXwyvseCjfm_76mP0-115" value="request resource" style="text;html=1;align=center;verticalAlign=middle;whiteSpace=wrap;rounded=0;fontSize=10;" parent="aYfPXwyvseCjfm_76mP0-270" vertex="1">
          <mxGeometry x="485.5" y="186" width="89" height="26" as="geometry" />
        </mxCell>
        <mxCell id="aYfPXwyvseCjfm_76mP0-116" value="active connection" style="text;html=1;align=center;verticalAlign=middle;whiteSpace=wrap;rounded=0;fontSize=10;" parent="aYfPXwyvseCjfm_76mP0-270" vertex="1">
          <mxGeometry x="302.5" y="235" width="89" height="30" as="geometry" />
        </mxCell>
        <mxCell id="aYfPXwyvseCjfm_76mP0-117" style="edgeStyle=orthogonalEdgeStyle;rounded=0;orthogonalLoop=1;jettySize=auto;html=1;exitX=0.5;exitY=1;exitDx=0;exitDy=0;entryX=0.5;entryY=0;entryDx=0;entryDy=0;dashed=1;dashPattern=1 4;endArrow=none;startFill=0;" parent="aYfPXwyvseCjfm_76mP0-270" source="aYfPXwyvseCjfm_76mP0-118" target="aYfPXwyvseCjfm_76mP0-104" edge="1">
          <mxGeometry relative="1" as="geometry" />
        </mxCell>
        <mxCell id="aYfPXwyvseCjfm_76mP0-118" value="&lt;font style=&quot;font-size: 9px;&quot;&gt;non-interactive process generated by a request from the client&lt;/font&gt;" style="rounded=0;whiteSpace=wrap;html=1;fontSize=10;dashed=1;dashPattern=1 4;strokeColor=default;" parent="aYfPXwyvseCjfm_76mP0-270" vertex="1">
          <mxGeometry x="23.5" y="70" width="120" height="40" as="geometry" />
        </mxCell>
        <mxCell id="aYfPXwyvseCjfm_76mP0-119" style="edgeStyle=orthogonalEdgeStyle;rounded=0;orthogonalLoop=1;jettySize=auto;html=1;exitX=0.5;exitY=1;exitDx=0;exitDy=0;entryX=0.5;entryY=0;entryDx=0;entryDy=0;dashed=1;dashPattern=1 4;endArrow=none;startFill=0;" parent="aYfPXwyvseCjfm_76mP0-270" source="aYfPXwyvseCjfm_76mP0-127" target="aYfPXwyvseCjfm_76mP0-106" edge="1">
          <mxGeometry relative="1" as="geometry" />
        </mxCell>
        <mxCell id="aYfPXwyvseCjfm_76mP0-121" style="edgeStyle=orthogonalEdgeStyle;rounded=0;orthogonalLoop=1;jettySize=auto;html=1;entryX=0.5;entryY=1;entryDx=0;entryDy=0;dashed=1;dashPattern=1 4;endArrow=none;startFill=0;" parent="aYfPXwyvseCjfm_76mP0-270" source="aYfPXwyvseCjfm_76mP0-122" target="aYfPXwyvseCjfm_76mP0-106" edge="1">
          <mxGeometry relative="1" as="geometry" />
        </mxCell>
        <mxCell id="aYfPXwyvseCjfm_76mP0-123" value="&lt;font style=&quot;font-size: 16px;&quot;&gt;Password Vault&lt;/font&gt;" style="ellipse;whiteSpace=wrap;html=1;fillColor=#d5e8d4;strokeColor=#82b366;align=center;" parent="aYfPXwyvseCjfm_76mP0-270" vertex="1">
          <mxGeometry x="314" y="350" width="86" height="74" as="geometry" />
        </mxCell>
        <mxCell id="aYfPXwyvseCjfm_76mP0-124" style="edgeStyle=orthogonalEdgeStyle;rounded=0;orthogonalLoop=1;jettySize=auto;html=1;entryX=0.5;entryY=0;entryDx=0;entryDy=0;dashed=1;dashPattern=1 4;endArrow=none;startFill=0;" parent="aYfPXwyvseCjfm_76mP0-270" source="aYfPXwyvseCjfm_76mP0-125" target="aYfPXwyvseCjfm_76mP0-123" edge="1">
          <mxGeometry relative="1" as="geometry" />
        </mxCell>
        <mxCell id="aYfPXwyvseCjfm_76mP0-126" value="" style="group" parent="aYfPXwyvseCjfm_76mP0-270" vertex="1" connectable="0">
          <mxGeometry x="200" y="30" width="153" height="80" as="geometry" />
        </mxCell>
        <mxCell id="aYfPXwyvseCjfm_76mP0-127" value="&lt;b&gt;&amp;nbsp;authentication algorithm&lt;/b&gt;" style="rounded=0;whiteSpace=wrap;html=1;fontSize=10;dashed=1;dashPattern=1 4;strokeColor=default;fillColor=default;verticalAlign=top;align=center;" parent="aYfPXwyvseCjfm_76mP0-126" vertex="1">
          <mxGeometry width="153" height="80" as="geometry" />
        </mxCell>
        <mxCell id="aYfPXwyvseCjfm_76mP0-128" value="&lt;div&gt;&lt;font style=&quot;font-size: 9px;&quot;&gt;OTP, HTOP and HMAC-based&lt;/font&gt;&lt;/div&gt;&lt;div&gt;&lt;font style=&quot;font-size: 9px;&quot;&gt;&lt;font style=&quot;&quot;&gt;memory generated secret key and counter&amp;nbsp;&lt;/font&gt;&lt;span style=&quot;background-color: transparent; color: light-dark(rgb(0, 0, 0), rgb(255, 255, 255));&quot;&gt;generate HMAC A&lt;/span&gt;&lt;/font&gt;&lt;/div&gt;" style="rounded=0;whiteSpace=wrap;html=1;strokeWidth=0;" parent="aYfPXwyvseCjfm_76mP0-126" vertex="1">
          <mxGeometry x="5" y="22" width="144.12" height="50" as="geometry" />
        </mxCell>
        <mxCell id="aYfPXwyvseCjfm_76mP0-129" style="edgeStyle=orthogonalEdgeStyle;rounded=0;orthogonalLoop=1;jettySize=auto;html=1;exitX=0.5;exitY=1;exitDx=0;exitDy=0;entryX=0.461;entryY=-0.025;entryDx=0;entryDy=0;entryPerimeter=0;dashed=1;dashPattern=1 4;endArrow=none;startFill=0;" parent="aYfPXwyvseCjfm_76mP0-270" source="aYfPXwyvseCjfm_76mP0-108" target="aYfPXwyvseCjfm_76mP0-133" edge="1">
          <mxGeometry relative="1" as="geometry" />
        </mxCell>
        <mxCell id="aYfPXwyvseCjfm_76mP0-130" value="" style="group" parent="aYfPXwyvseCjfm_76mP0-270" vertex="1" connectable="0">
          <mxGeometry x="410" y="30" width="153" height="90" as="geometry" />
        </mxCell>
        <mxCell id="aYfPXwyvseCjfm_76mP0-131" value="&lt;b&gt;&amp;nbsp;authentication algorithm&lt;/b&gt;" style="rounded=0;whiteSpace=wrap;html=1;fontSize=10;dashed=1;dashPattern=1 4;strokeColor=default;fillColor=default;verticalAlign=top;align=center;" parent="aYfPXwyvseCjfm_76mP0-130" vertex="1">
          <mxGeometry width="153" height="90" as="geometry" />
        </mxCell>
        <mxCell id="aYfPXwyvseCjfm_76mP0-132" value="&lt;div&gt;&lt;font style=&quot;font-size: 9px;&quot;&gt;OTP, HTOP and HMAC-based&lt;/font&gt;&lt;/div&gt;&lt;div&gt;&lt;font style=&quot;font-size: 9px;&quot;&gt;&lt;font style=&quot;&quot;&gt;memory generated secret key and counter&amp;nbsp;&lt;/font&gt;&lt;span style=&quot;background-color: transparent; color: light-dark(rgb(0, 0, 0), rgb(255, 255, 255));&quot;&gt;generate HMAC B and compares it with HMAC A&lt;/span&gt;&lt;/font&gt;&lt;/div&gt;" style="rounded=0;whiteSpace=wrap;html=1;strokeWidth=0;" parent="aYfPXwyvseCjfm_76mP0-130" vertex="1">
          <mxGeometry x="5" y="22" width="144" height="58" as="geometry" />
        </mxCell>
        <mxCell id="aYfPXwyvseCjfm_76mP0-135" value="" style="group" parent="aYfPXwyvseCjfm_76mP0-270" vertex="1" connectable="0">
          <mxGeometry x="406.5" y="286" width="158" height="77" as="geometry" />
        </mxCell>
        <mxCell id="aYfPXwyvseCjfm_76mP0-133" value="&lt;b&gt;deobfuscation algorithm&lt;/b&gt;" style="rounded=0;whiteSpace=wrap;html=1;fontSize=10;dashed=1;dashPattern=1 4;strokeColor=default;verticalAlign=top;" parent="aYfPXwyvseCjfm_76mP0-135" vertex="1">
          <mxGeometry width="158" height="77" as="geometry" />
        </mxCell>
        <mxCell id="aYfPXwyvseCjfm_76mP0-134" value="&lt;div&gt;&lt;font style=&quot;font-size: 9px;&quot;&gt;deobfuscation with credential obfuscation&amp;nbsp;&lt;span style=&quot;background-color: transparent; color: light-dark(rgb(0, 0, 0), rgb(255, 255, 255));&quot;&gt;and HOTP based on setup sequence&lt;/span&gt;&lt;/font&gt;&lt;/div&gt;" style="rounded=0;whiteSpace=wrap;html=1;strokeWidth=0;" parent="aYfPXwyvseCjfm_76mP0-135" vertex="1">
          <mxGeometry x="8.5" y="20.909999999999854" width="142.12" height="46.09" as="geometry" />
        </mxCell>
        <mxCell id="aYfPXwyvseCjfm_76mP0-136" value="" style="group" parent="aYfPXwyvseCjfm_76mP0-270" vertex="1" connectable="0">
          <mxGeometry x="150" y="270" width="153" height="91" as="geometry" />
        </mxCell>
        <mxCell id="aYfPXwyvseCjfm_76mP0-122" value="&lt;b&gt;obfuscation algorithm&lt;/b&gt;" style="rounded=0;whiteSpace=wrap;html=1;fontSize=10;dashed=1;dashPattern=1 4;strokeColor=default;verticalAlign=top;" parent="aYfPXwyvseCjfm_76mP0-136" vertex="1">
          <mxGeometry width="153" height="91" as="geometry" />
        </mxCell>
        <mxCell id="aYfPXwyvseCjfm_76mP0-125" value="&lt;div&gt;&lt;font style=&quot;font-size: 9px;&quot;&gt;obfuscation with credential data and&amp;nbsp;&lt;span style=&quot;background-color: transparent; color: light-dark(rgb(0, 0, 0), rgb(255, 255, 255));&quot;&gt;HOTP based on setup sequence&amp;nbsp;&lt;/span&gt;&lt;span style=&quot;background-color: transparent; color: light-dark(rgb(0, 0, 0), rgb(255, 255, 255));&quot;&gt;stores the obfuscated credential&lt;/span&gt;&lt;/font&gt;&lt;/div&gt;" style="rounded=0;whiteSpace=wrap;html=1;strokeWidth=0;" parent="aYfPXwyvseCjfm_76mP0-136" vertex="1">
          <mxGeometry x="5.689999999999998" y="22" width="142.12" height="62" as="geometry" />
        </mxCell>
        <mxCell id="aYfPXwyvseCjfm_76mP0-137" style="edgeStyle=orthogonalEdgeStyle;rounded=0;orthogonalLoop=1;jettySize=auto;html=1;exitX=0.5;exitY=1;exitDx=0;exitDy=0;entryX=0.5;entryY=0;entryDx=0;entryDy=0;dashed=1;dashPattern=1 4;endArrow=none;startFill=0;" parent="aYfPXwyvseCjfm_76mP0-270" source="aYfPXwyvseCjfm_76mP0-131" target="aYfPXwyvseCjfm_76mP0-108" edge="1">
          <mxGeometry relative="1" as="geometry" />
        </mxCell>
        <mxCell id="aYfPXwyvseCjfm_76mP0-274" value="" style="group" parent="WIyWlLk6GJQsqaUBKTNV-1" vertex="1" connectable="0">
          <mxGeometry x="820" y="781" width="470" height="289" as="geometry" />
        </mxCell>
        <mxCell id="aYfPXwyvseCjfm_76mP0-208" value="" style="rounded=0;whiteSpace=wrap;html=1;" parent="aYfPXwyvseCjfm_76mP0-274" vertex="1">
          <mxGeometry width="470" height="289" as="geometry" />
        </mxCell>
        <mxCell id="aYfPXwyvseCjfm_76mP0-173" style="edgeStyle=orthogonalEdgeStyle;rounded=0;orthogonalLoop=1;jettySize=auto;html=1;exitX=1;exitY=0.5;exitDx=0;exitDy=0;entryX=0;entryY=0.5;entryDx=0;entryDy=0;" parent="aYfPXwyvseCjfm_76mP0-274" source="aYfPXwyvseCjfm_76mP0-174" target="aYfPXwyvseCjfm_76mP0-176" edge="1">
          <mxGeometry relative="1" as="geometry" />
        </mxCell>
        <mxCell id="aYfPXwyvseCjfm_76mP0-273" style="edgeStyle=orthogonalEdgeStyle;rounded=0;orthogonalLoop=1;jettySize=auto;html=1;exitX=0.5;exitY=1;exitDx=0;exitDy=0;entryX=0.5;entryY=0;entryDx=0;entryDy=0;dashed=1;dashPattern=1 4;endArrow=none;startFill=0;" parent="aYfPXwyvseCjfm_76mP0-274" source="aYfPXwyvseCjfm_76mP0-174" target="aYfPXwyvseCjfm_76mP0-190" edge="1">
          <mxGeometry relative="1" as="geometry" />
        </mxCell>
        <mxCell id="aYfPXwyvseCjfm_76mP0-174" value="&lt;font style=&quot;font-size: 16px;&quot;&gt;&lt;b&gt;NIA&lt;/b&gt;&lt;/font&gt;&lt;div&gt;&lt;font style=&quot;font-size: 16px;&quot;&gt;&lt;b&gt;Monitor&lt;/b&gt;&lt;/font&gt;&lt;/div&gt;" style="rounded=1;whiteSpace=wrap;html=1;fillColor=#f8cecc;strokeColor=#b85450;" parent="aYfPXwyvseCjfm_76mP0-274" vertex="1">
          <mxGeometry x="50" y="14" width="90" height="60" as="geometry" />
        </mxCell>
        <mxCell id="aYfPXwyvseCjfm_76mP0-176" value="&lt;font style=&quot;font-size: 16px;&quot;&gt;&lt;b&gt;NIA&amp;nbsp;&lt;/b&gt;&lt;/font&gt;&lt;div&gt;&lt;font style=&quot;font-size: 16px;&quot;&gt;&lt;b&gt;Agent&lt;/b&gt;&lt;/font&gt;&lt;/div&gt;" style="rounded=1;whiteSpace=wrap;html=1;fillColor=#dae8fc;strokeColor=#6c8ebf;" parent="aYfPXwyvseCjfm_76mP0-274" vertex="1">
          <mxGeometry x="324" y="14" width="90" height="60" as="geometry" />
        </mxCell>
        <mxCell id="aYfPXwyvseCjfm_76mP0-180" value="&lt;font style=&quot;font-size: 11px;&quot;&gt;request HMAC with signature&lt;/font&gt;" style="text;html=1;align=center;verticalAlign=middle;whiteSpace=wrap;rounded=0;fontSize=10;" parent="aYfPXwyvseCjfm_76mP0-274" vertex="1">
          <mxGeometry x="150" y="13" width="154.5" height="30" as="geometry" />
        </mxCell>
        <mxCell id="aYfPXwyvseCjfm_76mP0-181" value="&lt;font style=&quot;font-size: 11px;&quot;&gt;request with&amp;nbsp;&lt;span style=&quot;background-color: transparent; color: light-dark(rgb(0, 0, 0), rgb(255, 255, 255));&quot;&gt;credential obfuscated&lt;/span&gt;&lt;/font&gt;" style="text;html=1;align=center;verticalAlign=middle;whiteSpace=wrap;rounded=0;fontSize=10;" parent="aYfPXwyvseCjfm_76mP0-274" vertex="1">
          <mxGeometry x="140" y="43" width="178" height="30" as="geometry" />
        </mxCell>
        <mxCell id="aYfPXwyvseCjfm_76mP0-204" style="edgeStyle=orthogonalEdgeStyle;rounded=0;orthogonalLoop=1;jettySize=auto;html=1;entryX=0.5;entryY=0;entryDx=0;entryDy=0;dashed=1;dashPattern=1 4;endArrow=none;startFill=0;" parent="aYfPXwyvseCjfm_76mP0-274" source="aYfPXwyvseCjfm_76mP0-190" target="aYfPXwyvseCjfm_76mP0-191" edge="1">
          <mxGeometry relative="1" as="geometry" />
        </mxCell>
        <mxCell id="aYfPXwyvseCjfm_76mP0-191" value="&lt;font style=&quot;font-size: 15px;&quot;&gt;Password Vault&lt;/font&gt;" style="ellipse;whiteSpace=wrap;html=1;fillColor=#d5e8d4;strokeColor=#82b366;" parent="aYfPXwyvseCjfm_76mP0-274" vertex="1">
          <mxGeometry x="195.75" y="202" width="77.5" height="70" as="geometry" />
        </mxCell>
        <mxCell id="aYfPXwyvseCjfm_76mP0-197" style="edgeStyle=orthogonalEdgeStyle;rounded=0;orthogonalLoop=1;jettySize=auto;html=1;exitX=0.5;exitY=1;exitDx=0;exitDy=0;entryX=0.461;entryY=-0.025;entryDx=0;entryDy=0;entryPerimeter=0;dashed=1;dashPattern=1 4;endArrow=none;startFill=0;" parent="aYfPXwyvseCjfm_76mP0-274" source="aYfPXwyvseCjfm_76mP0-176" target="aYfPXwyvseCjfm_76mP0-201" edge="1">
          <mxGeometry relative="1" as="geometry" />
        </mxCell>
        <mxCell id="aYfPXwyvseCjfm_76mP0-201" value="&lt;b&gt;&lt;font style=&quot;font-size: 11px;&quot;&gt;deobfuscation algorithm&lt;/font&gt;&lt;/b&gt;" style="rounded=0;whiteSpace=wrap;html=1;fontSize=10;dashed=1;dashPattern=1 4;strokeColor=default;verticalAlign=top;" parent="aYfPXwyvseCjfm_76mP0-274" vertex="1">
          <mxGeometry x="296" y="117" width="158" height="83" as="geometry" />
        </mxCell>
        <mxCell id="aYfPXwyvseCjfm_76mP0-202" value="&lt;div&gt;&lt;font style=&quot;font-size: 11px;&quot;&gt;deobfuscation with credential obfuscation&amp;nbsp;&lt;span style=&quot;background-color: transparent; color: light-dark(rgb(0, 0, 0), rgb(255, 255, 255));&quot;&gt;and HOTP based on setup sequence&lt;/span&gt;&lt;/font&gt;&lt;/div&gt;" style="rounded=0;whiteSpace=wrap;html=1;strokeWidth=0;" parent="aYfPXwyvseCjfm_76mP0-274" vertex="1">
          <mxGeometry x="300" y="137.91" width="146.62" height="52.09" as="geometry" />
        </mxCell>
        <mxCell id="6Zuxu7poRV31IZOU_Pu6-3" value="" style="group" parent="aYfPXwyvseCjfm_76mP0-274" vertex="1" connectable="0">
          <mxGeometry x="19.5" y="118" width="150.5" height="91" as="geometry" />
        </mxCell>
        <mxCell id="aYfPXwyvseCjfm_76mP0-190" value="&lt;b&gt;&lt;font style=&quot;font-size: 11px;&quot;&gt;obfuscation algorithm&lt;/font&gt;&lt;/b&gt;" style="rounded=0;whiteSpace=wrap;html=1;fontSize=10;dashed=1;dashPattern=1 4;strokeColor=default;verticalAlign=top;" parent="6Zuxu7poRV31IZOU_Pu6-3" vertex="1">
          <mxGeometry width="150.5" height="91" as="geometry" />
        </mxCell>
        <mxCell id="aYfPXwyvseCjfm_76mP0-193" value="&lt;div&gt;&lt;font style=&quot;font-size: 11px;&quot;&gt;obfuscation with credential data and&amp;nbsp;&lt;span style=&quot;background-color: transparent; color: light-dark(rgb(0, 0, 0), rgb(255, 255, 255));&quot;&gt;HOTP based on setup sequence&amp;nbsp;&lt;/span&gt;&lt;span style=&quot;background-color: transparent; color: light-dark(rgb(0, 0, 0), rgb(255, 255, 255));&quot;&gt;stores the obfuscated credential&lt;/span&gt;&lt;/font&gt;&lt;/div&gt;" style="rounded=0;whiteSpace=wrap;html=1;strokeWidth=0;" parent="6Zuxu7poRV31IZOU_Pu6-3" vertex="1">
          <mxGeometry x="3.6900000000000546" y="22" width="142.12" height="62" as="geometry" />
        </mxCell>
        <mxCell id="6Zuxu7poRV31IZOU_Pu6-5" value="" style="group" parent="WIyWlLk6GJQsqaUBKTNV-1" vertex="1" connectable="0">
          <mxGeometry x="790" y="450" width="450" height="240" as="geometry" />
        </mxCell>
        <mxCell id="aYfPXwyvseCjfm_76mP0-207" value="" style="rounded=0;whiteSpace=wrap;html=1;" parent="6Zuxu7poRV31IZOU_Pu6-5" vertex="1">
          <mxGeometry width="450" height="240" as="geometry" />
        </mxCell>
        <mxCell id="aYfPXwyvseCjfm_76mP0-140" style="edgeStyle=orthogonalEdgeStyle;rounded=0;orthogonalLoop=1;jettySize=auto;html=1;exitX=1;exitY=0.5;exitDx=0;exitDy=0;entryX=0;entryY=0.5;entryDx=0;entryDy=0;" parent="6Zuxu7poRV31IZOU_Pu6-5" source="aYfPXwyvseCjfm_76mP0-141" target="aYfPXwyvseCjfm_76mP0-143" edge="1">
          <mxGeometry relative="1" as="geometry" />
        </mxCell>
        <mxCell id="aYfPXwyvseCjfm_76mP0-141" value="&lt;font style=&quot;font-size: 16px;&quot;&gt;&lt;b&gt;NIA&lt;/b&gt;&lt;/font&gt;&lt;div&gt;&lt;font style=&quot;font-size: 16px;&quot;&gt;&lt;b&gt;Monitor&lt;/b&gt;&lt;/font&gt;&lt;/div&gt;" style="rounded=1;whiteSpace=wrap;html=1;fillColor=#f8cecc;strokeColor=#b85450;" parent="6Zuxu7poRV31IZOU_Pu6-5" vertex="1">
          <mxGeometry x="31.5" y="144" width="90" height="60" as="geometry" />
        </mxCell>
        <mxCell id="aYfPXwyvseCjfm_76mP0-147" value="&lt;font style=&quot;font-size: 11px;&quot;&gt;request HMAC with signature&lt;/font&gt;" style="text;html=1;align=center;verticalAlign=middle;whiteSpace=wrap;rounded=0;fontSize=10;" parent="6Zuxu7poRV31IZOU_Pu6-5" vertex="1">
          <mxGeometry x="140" y="146" width="149" height="30" as="geometry" />
        </mxCell>
        <mxCell id="aYfPXwyvseCjfm_76mP0-148" value="request with&amp;nbsp;&lt;span style=&quot;background-color: transparent; color: light-dark(rgb(0, 0, 0), rgb(255, 255, 255));&quot;&gt;credential obfuscated&lt;/span&gt;" style="text;html=1;align=center;verticalAlign=middle;whiteSpace=wrap;rounded=0;fontSize=11;" parent="6Zuxu7poRV31IZOU_Pu6-5" vertex="1">
          <mxGeometry x="119" y="171" width="187" height="30" as="geometry" />
        </mxCell>
        <mxCell id="aYfPXwyvseCjfm_76mP0-154" style="edgeStyle=orthogonalEdgeStyle;rounded=0;orthogonalLoop=1;jettySize=auto;html=1;exitX=0.5;exitY=1;exitDx=0;exitDy=0;entryX=0.5;entryY=0;entryDx=0;entryDy=0;dashed=1;dashPattern=1 4;endArrow=none;startFill=0;" parent="6Zuxu7poRV31IZOU_Pu6-5" source="aYfPXwyvseCjfm_76mP0-162" target="aYfPXwyvseCjfm_76mP0-141" edge="1">
          <mxGeometry relative="1" as="geometry" />
        </mxCell>
        <mxCell id="aYfPXwyvseCjfm_76mP0-143" value="&lt;font style=&quot;font-size: 16px;&quot;&gt;&lt;b&gt;NIA&amp;nbsp;&lt;/b&gt;&lt;/font&gt;&lt;div&gt;&lt;font style=&quot;font-size: 16px;&quot;&gt;&lt;b&gt;Agent&lt;/b&gt;&lt;/font&gt;&lt;/div&gt;" style="rounded=1;whiteSpace=wrap;html=1;fillColor=#dae8fc;strokeColor=#6c8ebf;" parent="6Zuxu7poRV31IZOU_Pu6-5" vertex="1">
          <mxGeometry x="307" y="144" width="90" height="60" as="geometry" />
        </mxCell>
        <mxCell id="aYfPXwyvseCjfm_76mP0-155" style="edgeStyle=orthogonalEdgeStyle;rounded=0;orthogonalLoop=1;jettySize=auto;html=1;exitX=0.5;exitY=1;exitDx=0;exitDy=0;entryX=0.5;entryY=0;entryDx=0;entryDy=0;endArrow=none;startFill=0;dashed=1;dashPattern=1 4;" parent="6Zuxu7poRV31IZOU_Pu6-5" target="aYfPXwyvseCjfm_76mP0-143" edge="1">
          <mxGeometry relative="1" as="geometry">
            <mxPoint x="352" y="114" as="sourcePoint" />
          </mxGeometry>
        </mxCell>
        <mxCell id="aYfPXwyvseCjfm_76mP0-162" value="&lt;b&gt;&lt;font style=&quot;font-size: 11px;&quot;&gt;&amp;nbsp;authentication algorithm&lt;/font&gt;&lt;/b&gt;" style="rounded=0;whiteSpace=wrap;html=1;fontSize=10;dashed=1;dashPattern=1 4;strokeColor=default;fillColor=default;verticalAlign=top;align=center;" parent="6Zuxu7poRV31IZOU_Pu6-5" vertex="1">
          <mxGeometry x="10" y="24" width="170" height="80" as="geometry" />
        </mxCell>
        <mxCell id="aYfPXwyvseCjfm_76mP0-163" value="&lt;div&gt;&lt;font style=&quot;font-size: 11px;&quot;&gt;OTP, HTOP and HMAC-based&lt;/font&gt;&lt;/div&gt;&lt;div&gt;&lt;font style=&quot;font-size: 11px;&quot;&gt;&lt;font style=&quot;&quot;&gt;memory generated secret key and counter&amp;nbsp;&lt;/font&gt;&lt;span style=&quot;background-color: transparent; color: light-dark(rgb(0, 0, 0), rgb(255, 255, 255));&quot;&gt;generate HMAC A&lt;/span&gt;&lt;/font&gt;&lt;/div&gt;" style="rounded=0;whiteSpace=wrap;html=1;strokeWidth=0;" parent="6Zuxu7poRV31IZOU_Pu6-5" vertex="1">
          <mxGeometry x="18" y="46" width="155" height="50" as="geometry" />
        </mxCell>
        <mxCell id="aYfPXwyvseCjfm_76mP0-166" value="&lt;b&gt;&amp;nbsp;authentication algorithm&lt;/b&gt;" style="rounded=0;whiteSpace=wrap;html=1;fontSize=10;dashed=1;dashPattern=1 4;strokeColor=default;fillColor=default;verticalAlign=top;align=center;" parent="6Zuxu7poRV31IZOU_Pu6-5" vertex="1">
          <mxGeometry x="260" y="24" width="174" height="90" as="geometry" />
        </mxCell>
        <mxCell id="aYfPXwyvseCjfm_76mP0-167" value="&lt;div&gt;&lt;font style=&quot;font-size: 11px;&quot;&gt;OTP, HTOP and HMAC-based&lt;/font&gt;&lt;/div&gt;&lt;div&gt;&lt;font style=&quot;font-size: 11px;&quot;&gt;&lt;font style=&quot;&quot;&gt;memory generated secret key and counter&amp;nbsp;&lt;/font&gt;&lt;span style=&quot;background-color: transparent; color: light-dark(rgb(0, 0, 0), rgb(255, 255, 255));&quot;&gt;generate HMAC B and compares it with HMAC A&lt;/span&gt;&lt;/font&gt;&lt;/div&gt;" style="rounded=0;whiteSpace=wrap;html=1;strokeWidth=0;" parent="6Zuxu7poRV31IZOU_Pu6-5" vertex="1">
          <mxGeometry x="265" y="46" width="160" height="58" as="geometry" />
        </mxCell>
        <mxCell id="QVcEyd29Xkg5I18frVKQ-30" value="" style="group" parent="WIyWlLk6GJQsqaUBKTNV-1" vertex="1" connectable="0">
          <mxGeometry x="180" y="-530" width="500" height="370" as="geometry" />
        </mxCell>
        <mxCell id="QVcEyd29Xkg5I18frVKQ-1" value="" style="rounded=0;whiteSpace=wrap;html=1;movable=1;resizable=1;rotatable=1;deletable=1;editable=1;locked=0;connectable=1;" parent="QVcEyd29Xkg5I18frVKQ-30" vertex="1">
          <mxGeometry width="500" height="370" as="geometry" />
        </mxCell>
        <mxCell id="QVcEyd29Xkg5I18frVKQ-4" style="edgeStyle=orthogonalEdgeStyle;rounded=0;orthogonalLoop=1;jettySize=auto;html=1;exitX=1;exitY=0.5;exitDx=0;exitDy=0;entryX=0;entryY=0.5;entryDx=0;entryDy=0;movable=1;resizable=1;rotatable=1;deletable=1;editable=1;locked=0;connectable=1;" parent="QVcEyd29Xkg5I18frVKQ-30" source="QVcEyd29Xkg5I18frVKQ-5" target="QVcEyd29Xkg5I18frVKQ-7" edge="1">
          <mxGeometry relative="1" as="geometry" />
        </mxCell>
        <mxCell id="QVcEyd29Xkg5I18frVKQ-5" value="&lt;font style=&quot;font-size: 16px;&quot;&gt;&lt;b&gt;NIA&lt;/b&gt;&lt;/font&gt;&lt;div&gt;&lt;font style=&quot;font-size: 16px;&quot;&gt;&lt;b&gt;Monitor&lt;/b&gt;&lt;/font&gt;&lt;/div&gt;" style="rounded=1;whiteSpace=wrap;html=1;fillColor=#f8cecc;strokeColor=#b85450;movable=1;resizable=1;rotatable=1;deletable=1;editable=1;locked=0;connectable=1;" parent="QVcEyd29Xkg5I18frVKQ-30" vertex="1">
          <mxGeometry x="65" y="100" width="90" height="60" as="geometry" />
        </mxCell>
        <mxCell id="QVcEyd29Xkg5I18frVKQ-7" value="&lt;font style=&quot;font-size: 16px;&quot;&gt;&lt;b&gt;NIA&amp;nbsp;&lt;/b&gt;&lt;/font&gt;&lt;div&gt;&lt;font style=&quot;font-size: 16px;&quot;&gt;&lt;b&gt;Agent&lt;/b&gt;&lt;/font&gt;&lt;/div&gt;" style="rounded=1;whiteSpace=wrap;html=1;fillColor=#dae8fc;strokeColor=#6c8ebf;movable=1;resizable=1;rotatable=1;deletable=1;editable=1;locked=0;connectable=1;" parent="QVcEyd29Xkg5I18frVKQ-30" vertex="1">
          <mxGeometry x="350" y="100" width="90" height="60" as="geometry" />
        </mxCell>
        <mxCell id="QVcEyd29Xkg5I18frVKQ-11" value="request HMAC with signature" style="text;html=1;align=center;verticalAlign=middle;whiteSpace=wrap;rounded=0;fontSize=11;movable=1;resizable=1;rotatable=1;deletable=1;editable=1;locked=0;connectable=1;" parent="QVcEyd29Xkg5I18frVKQ-30" vertex="1">
          <mxGeometry x="161.5" y="100" width="155" height="30" as="geometry" />
        </mxCell>
        <mxCell id="QVcEyd29Xkg5I18frVKQ-12" value="request with&amp;nbsp;&lt;span style=&quot;background-color: transparent; color: light-dark(rgb(0, 0, 0), rgb(255, 255, 255));&quot;&gt;credential obfuscated&lt;/span&gt;" style="text;html=1;align=center;verticalAlign=middle;whiteSpace=wrap;rounded=0;fontSize=11;movable=1;resizable=1;rotatable=1;deletable=1;editable=1;locked=0;connectable=1;" parent="QVcEyd29Xkg5I18frVKQ-30" vertex="1">
          <mxGeometry x="161.5" y="130" width="179" height="30" as="geometry" />
        </mxCell>
        <mxCell id="QVcEyd29Xkg5I18frVKQ-18" style="edgeStyle=orthogonalEdgeStyle;rounded=0;orthogonalLoop=1;jettySize=auto;html=1;exitX=0.5;exitY=1;exitDx=0;exitDy=0;entryX=0.5;entryY=0;entryDx=0;entryDy=0;dashed=1;dashPattern=1 4;endArrow=none;startFill=0;movable=1;resizable=1;rotatable=1;deletable=1;editable=1;locked=0;connectable=1;" parent="QVcEyd29Xkg5I18frVKQ-30" source="QVcEyd29Xkg5I18frVKQ-19" target="QVcEyd29Xkg5I18frVKQ-5" edge="1">
          <mxGeometry relative="1" as="geometry" />
        </mxCell>
        <mxCell id="QVcEyd29Xkg5I18frVKQ-19" value="&lt;b&gt;&lt;font style=&quot;font-size: 11px;&quot;&gt;authentication algorithm&lt;/font&gt;&lt;/b&gt;" style="rounded=0;whiteSpace=wrap;html=1;fontSize=10;dashed=1;dashPattern=1 4;strokeColor=default;movable=1;resizable=1;rotatable=1;deletable=1;editable=1;locked=0;connectable=1;" parent="QVcEyd29Xkg5I18frVKQ-30" vertex="1">
          <mxGeometry x="40" y="30" width="137" height="40" as="geometry" />
        </mxCell>
        <mxCell id="QVcEyd29Xkg5I18frVKQ-20" style="edgeStyle=orthogonalEdgeStyle;rounded=0;orthogonalLoop=1;jettySize=auto;html=1;exitX=0.5;exitY=1;exitDx=0;exitDy=0;entryX=0.5;entryY=0;entryDx=0;entryDy=0;endArrow=none;startFill=0;dashed=1;dashPattern=1 4;movable=1;resizable=1;rotatable=1;deletable=1;editable=1;locked=0;connectable=1;" parent="QVcEyd29Xkg5I18frVKQ-30" source="QVcEyd29Xkg5I18frVKQ-21" target="QVcEyd29Xkg5I18frVKQ-7" edge="1">
          <mxGeometry relative="1" as="geometry" />
        </mxCell>
        <mxCell id="QVcEyd29Xkg5I18frVKQ-21" value="&lt;b&gt;&lt;font style=&quot;font-size: 11px;&quot;&gt;authentication algorithm&lt;/font&gt;&lt;/b&gt;" style="rounded=0;whiteSpace=wrap;html=1;fontSize=10;dashed=1;dashPattern=1 4;strokeColor=default;movable=1;resizable=1;rotatable=1;deletable=1;editable=1;locked=0;connectable=1;" parent="QVcEyd29Xkg5I18frVKQ-30" vertex="1">
          <mxGeometry x="325" y="30" width="138" height="40" as="geometry" />
        </mxCell>
        <mxCell id="QVcEyd29Xkg5I18frVKQ-22" style="edgeStyle=orthogonalEdgeStyle;rounded=0;orthogonalLoop=1;jettySize=auto;html=1;entryX=0.5;entryY=1;entryDx=0;entryDy=0;dashed=1;dashPattern=1 4;endArrow=none;startFill=0;movable=1;resizable=1;rotatable=1;deletable=1;editable=1;locked=0;connectable=1;" parent="QVcEyd29Xkg5I18frVKQ-30" source="QVcEyd29Xkg5I18frVKQ-24" target="QVcEyd29Xkg5I18frVKQ-5" edge="1">
          <mxGeometry relative="1" as="geometry" />
        </mxCell>
        <mxCell id="QVcEyd29Xkg5I18frVKQ-23" style="edgeStyle=orthogonalEdgeStyle;rounded=0;orthogonalLoop=1;jettySize=auto;html=1;exitX=0.5;exitY=1;exitDx=0;exitDy=0;entryX=0.5;entryY=0;entryDx=0;entryDy=0;dashed=1;dashPattern=1 4;endArrow=none;startFill=0;movable=1;resizable=1;rotatable=1;deletable=1;editable=1;locked=0;connectable=1;" parent="QVcEyd29Xkg5I18frVKQ-30" source="QVcEyd29Xkg5I18frVKQ-24" target="QVcEyd29Xkg5I18frVKQ-27" edge="1">
          <mxGeometry relative="1" as="geometry" />
        </mxCell>
        <mxCell id="QVcEyd29Xkg5I18frVKQ-24" value="&lt;b&gt;&lt;font style=&quot;font-size: 11px;&quot;&gt;obfuscation algorithm&lt;/font&gt;&lt;/b&gt;" style="rounded=0;whiteSpace=wrap;html=1;fontSize=10;dashed=1;dashPattern=1 4;strokeColor=default;movable=1;resizable=1;rotatable=1;deletable=1;editable=1;locked=0;connectable=1;" parent="QVcEyd29Xkg5I18frVKQ-30" vertex="1">
          <mxGeometry x="49" y="209" width="121.5" height="40" as="geometry" />
        </mxCell>
        <mxCell id="QVcEyd29Xkg5I18frVKQ-25" style="edgeStyle=orthogonalEdgeStyle;rounded=0;orthogonalLoop=1;jettySize=auto;html=1;entryX=0.5;entryY=1;entryDx=0;entryDy=0;dashed=1;dashPattern=1 4;endArrow=none;startFill=0;movable=1;resizable=1;rotatable=1;deletable=1;editable=1;locked=0;connectable=1;" parent="QVcEyd29Xkg5I18frVKQ-30" source="QVcEyd29Xkg5I18frVKQ-26" target="QVcEyd29Xkg5I18frVKQ-7" edge="1">
          <mxGeometry relative="1" as="geometry" />
        </mxCell>
        <mxCell id="QVcEyd29Xkg5I18frVKQ-26" value="&lt;b&gt;&lt;font style=&quot;font-size: 11px;&quot;&gt;deobfuscation algorithm&lt;/font&gt;&lt;/b&gt;" style="rounded=0;whiteSpace=wrap;html=1;fontSize=10;dashed=1;dashPattern=1 4;strokeColor=default;movable=1;resizable=1;rotatable=1;deletable=1;editable=1;locked=0;connectable=1;" parent="QVcEyd29Xkg5I18frVKQ-30" vertex="1">
          <mxGeometry x="326" y="209" width="139" height="40" as="geometry" />
        </mxCell>
        <mxCell id="QVcEyd29Xkg5I18frVKQ-27" value="&lt;font style=&quot;font-size: 15px;&quot;&gt;Password Vault&lt;/font&gt;" style="ellipse;whiteSpace=wrap;html=1;fillColor=#d5e8d4;strokeColor=#82b366;movable=1;resizable=1;rotatable=1;deletable=1;editable=1;locked=0;connectable=1;" parent="QVcEyd29Xkg5I18frVKQ-30" vertex="1">
          <mxGeometry x="70.25" y="290" width="77.5" height="70" as="geometry" />
        </mxCell>
        <mxCell id="QVcEyd29Xkg5I18frVKQ-28" value="get credential" style="text;html=1;align=center;verticalAlign=middle;whiteSpace=wrap;rounded=0;fontSize=11;movable=1;resizable=1;rotatable=1;deletable=1;editable=1;locked=0;connectable=1;" parent="QVcEyd29Xkg5I18frVKQ-30" vertex="1">
          <mxGeometry x="111" y="254" width="77" height="30" as="geometry" />
        </mxCell>
        <mxCell id="QVcEyd29Xkg5I18frVKQ-31" value="" style="group" parent="WIyWlLk6GJQsqaUBKTNV-1" vertex="1" connectable="0">
          <mxGeometry x="30" y="10" width="666" height="370" as="geometry" />
        </mxCell>
        <mxCell id="aYfPXwyvseCjfm_76mP0-33" value="" style="rounded=0;whiteSpace=wrap;html=1;movable=1;resizable=1;rotatable=1;deletable=1;editable=1;locked=0;connectable=1;" parent="QVcEyd29Xkg5I18frVKQ-31" vertex="1">
          <mxGeometry width="666" height="370" as="geometry" />
        </mxCell>
        <mxCell id="aYfPXwyvseCjfm_76mP0-5" style="edgeStyle=orthogonalEdgeStyle;rounded=0;orthogonalLoop=1;jettySize=auto;html=1;exitX=1;exitY=0.5;exitDx=0;exitDy=0;movable=1;resizable=1;rotatable=1;deletable=1;editable=1;locked=0;connectable=1;" parent="QVcEyd29Xkg5I18frVKQ-31" source="aYfPXwyvseCjfm_76mP0-0" target="aYfPXwyvseCjfm_76mP0-1" edge="1">
          <mxGeometry relative="1" as="geometry" />
        </mxCell>
        <mxCell id="aYfPXwyvseCjfm_76mP0-0" value="&lt;font style=&quot;font-size: 16px;&quot;&gt;Application&lt;/font&gt;" style="rounded=1;whiteSpace=wrap;html=1;fillColor=#dae8fc;strokeColor=#6c8ebf;movable=1;resizable=1;rotatable=1;deletable=1;editable=1;locked=0;connectable=1;" parent="QVcEyd29Xkg5I18frVKQ-31" vertex="1">
          <mxGeometry x="12" y="100" width="90" height="60" as="geometry" />
        </mxCell>
        <mxCell id="aYfPXwyvseCjfm_76mP0-9" style="edgeStyle=orthogonalEdgeStyle;rounded=0;orthogonalLoop=1;jettySize=auto;html=1;exitX=1;exitY=0.5;exitDx=0;exitDy=0;entryX=0;entryY=0.5;entryDx=0;entryDy=0;movable=1;resizable=1;rotatable=1;deletable=1;editable=1;locked=0;connectable=1;" parent="QVcEyd29Xkg5I18frVKQ-31" source="aYfPXwyvseCjfm_76mP0-1" target="aYfPXwyvseCjfm_76mP0-2" edge="1">
          <mxGeometry relative="1" as="geometry" />
        </mxCell>
        <mxCell id="aYfPXwyvseCjfm_76mP0-1" value="&lt;font style=&quot;font-size: 16px;&quot;&gt;&lt;b&gt;NIA&lt;/b&gt;&lt;/font&gt;&lt;div&gt;&lt;font style=&quot;font-size: 16px;&quot;&gt;&lt;b&gt;Monitor&lt;/b&gt;&lt;/font&gt;&lt;/div&gt;" style="rounded=1;whiteSpace=wrap;html=1;fillColor=#f8cecc;strokeColor=#b85450;movable=1;resizable=1;rotatable=1;deletable=1;editable=1;locked=0;connectable=1;" parent="QVcEyd29Xkg5I18frVKQ-31" vertex="1">
          <mxGeometry x="185" y="100" width="90" height="60" as="geometry" />
        </mxCell>
        <mxCell id="aYfPXwyvseCjfm_76mP0-10" style="edgeStyle=orthogonalEdgeStyle;rounded=0;orthogonalLoop=1;jettySize=auto;html=1;exitX=1;exitY=0.5;exitDx=0;exitDy=0;movable=1;resizable=1;rotatable=1;deletable=1;editable=1;locked=0;connectable=1;" parent="QVcEyd29Xkg5I18frVKQ-31" source="aYfPXwyvseCjfm_76mP0-2" target="aYfPXwyvseCjfm_76mP0-3" edge="1">
          <mxGeometry relative="1" as="geometry" />
        </mxCell>
        <mxCell id="aYfPXwyvseCjfm_76mP0-2" value="&lt;font style=&quot;font-size: 16px;&quot;&gt;&lt;b&gt;NIA&amp;nbsp;&lt;/b&gt;&lt;/font&gt;&lt;div&gt;&lt;font style=&quot;font-size: 16px;&quot;&gt;&lt;b&gt;Agent&lt;/b&gt;&lt;/font&gt;&lt;/div&gt;" style="rounded=1;whiteSpace=wrap;html=1;fillColor=#f8cecc;strokeColor=#b85450;movable=1;resizable=1;rotatable=1;deletable=1;editable=1;locked=0;connectable=1;" parent="QVcEyd29Xkg5I18frVKQ-31" vertex="1">
          <mxGeometry x="387" y="100" width="90" height="60" as="geometry" />
        </mxCell>
        <mxCell id="aYfPXwyvseCjfm_76mP0-15" style="edgeStyle=orthogonalEdgeStyle;rounded=0;orthogonalLoop=1;jettySize=auto;html=1;exitX=0.5;exitY=1;exitDx=0;exitDy=0;entryX=0.5;entryY=1;entryDx=0;entryDy=0;dashed=1;movable=1;resizable=1;rotatable=1;deletable=1;editable=1;locked=0;connectable=1;" parent="QVcEyd29Xkg5I18frVKQ-31" source="aYfPXwyvseCjfm_76mP0-3" target="aYfPXwyvseCjfm_76mP0-0" edge="1">
          <mxGeometry relative="1" as="geometry" />
        </mxCell>
        <mxCell id="aYfPXwyvseCjfm_76mP0-3" value="&lt;font style=&quot;font-size: 16px;&quot;&gt;Resource&lt;/font&gt;" style="rounded=1;whiteSpace=wrap;html=1;fillColor=#dae8fc;strokeColor=#6c8ebf;movable=1;resizable=1;rotatable=1;deletable=1;editable=1;locked=0;connectable=1;" parent="QVcEyd29Xkg5I18frVKQ-31" vertex="1">
          <mxGeometry x="571" y="100" width="90" height="60" as="geometry" />
        </mxCell>
        <mxCell id="aYfPXwyvseCjfm_76mP0-6" value="request access resource" style="text;html=1;align=center;verticalAlign=middle;whiteSpace=wrap;rounded=0;fontSize=11;movable=1;resizable=1;rotatable=1;deletable=1;editable=1;locked=0;connectable=1;" parent="QVcEyd29Xkg5I18frVKQ-31" vertex="1">
          <mxGeometry x="98" y="99" width="89" height="30" as="geometry" />
        </mxCell>
        <mxCell id="aYfPXwyvseCjfm_76mP0-7" value="request HMAC with signature" style="text;html=1;align=center;verticalAlign=middle;whiteSpace=wrap;rounded=0;fontSize=11;movable=1;resizable=1;rotatable=1;deletable=1;editable=1;locked=0;connectable=1;" parent="QVcEyd29Xkg5I18frVKQ-31" vertex="1">
          <mxGeometry x="275" y="96" width="110" height="30" as="geometry" />
        </mxCell>
        <mxCell id="aYfPXwyvseCjfm_76mP0-8" value="request with&lt;div&gt;credential obfuscated&lt;/div&gt;" style="text;html=1;align=center;verticalAlign=middle;whiteSpace=wrap;rounded=0;fontSize=11;movable=1;resizable=1;rotatable=1;deletable=1;editable=1;locked=0;connectable=1;" parent="QVcEyd29Xkg5I18frVKQ-31" vertex="1">
          <mxGeometry x="271" y="132" width="120" height="30" as="geometry" />
        </mxCell>
        <mxCell id="aYfPXwyvseCjfm_76mP0-11" value="validate HMAC&amp;nbsp;" style="text;html=1;align=center;verticalAlign=middle;whiteSpace=wrap;rounded=0;fontSize=11;movable=1;resizable=1;rotatable=1;deletable=1;editable=1;locked=0;connectable=1;" parent="QVcEyd29Xkg5I18frVKQ-31" vertex="1">
          <mxGeometry x="479" y="105" width="89" height="30" as="geometry" />
        </mxCell>
        <mxCell id="aYfPXwyvseCjfm_76mP0-12" value="request resource" style="text;html=1;align=center;verticalAlign=middle;whiteSpace=wrap;rounded=0;fontSize=11;movable=1;resizable=1;rotatable=1;deletable=1;editable=1;locked=0;connectable=1;" parent="QVcEyd29Xkg5I18frVKQ-31" vertex="1">
          <mxGeometry x="477" y="127" width="89" height="26" as="geometry" />
        </mxCell>
        <mxCell id="aYfPXwyvseCjfm_76mP0-16" value="active connection" style="text;html=1;align=center;verticalAlign=middle;whiteSpace=wrap;rounded=0;fontSize=11;movable=1;resizable=1;rotatable=1;deletable=1;editable=1;locked=0;connectable=1;" parent="QVcEyd29Xkg5I18frVKQ-31" vertex="1">
          <mxGeometry x="291.5" y="175" width="89" height="30" as="geometry" />
        </mxCell>
        <mxCell id="6Zuxu7poRV31IZOU_Pu6-2" style="edgeStyle=orthogonalEdgeStyle;rounded=0;orthogonalLoop=1;jettySize=auto;html=1;entryX=0.5;entryY=0;entryDx=0;entryDy=0;dashed=1;dashPattern=1 4;endArrow=none;startFill=0;movable=1;resizable=1;rotatable=1;deletable=1;editable=1;locked=0;connectable=1;" parent="QVcEyd29Xkg5I18frVKQ-31" source="aYfPXwyvseCjfm_76mP0-17" target="aYfPXwyvseCjfm_76mP0-0" edge="1">
          <mxGeometry relative="1" as="geometry" />
        </mxCell>
        <mxCell id="aYfPXwyvseCjfm_76mP0-17" value="&lt;b&gt;&lt;font style=&quot;font-size: 11px;&quot;&gt;non-interactive process generated by a request from the client&lt;/font&gt;&lt;/b&gt;" style="rounded=0;whiteSpace=wrap;html=1;fontSize=10;dashed=1;dashPattern=1 4;strokeColor=default;movable=1;resizable=1;rotatable=1;deletable=1;editable=1;locked=0;connectable=1;" parent="QVcEyd29Xkg5I18frVKQ-31" vertex="1">
          <mxGeometry x="12" y="20" width="128" height="50" as="geometry" />
        </mxCell>
        <mxCell id="aYfPXwyvseCjfm_76mP0-21" style="edgeStyle=orthogonalEdgeStyle;rounded=0;orthogonalLoop=1;jettySize=auto;html=1;exitX=0.5;exitY=1;exitDx=0;exitDy=0;entryX=0.5;entryY=0;entryDx=0;entryDy=0;dashed=1;dashPattern=1 4;endArrow=none;startFill=0;movable=1;resizable=1;rotatable=1;deletable=1;editable=1;locked=0;connectable=1;" parent="QVcEyd29Xkg5I18frVKQ-31" source="aYfPXwyvseCjfm_76mP0-20" target="aYfPXwyvseCjfm_76mP0-1" edge="1">
          <mxGeometry relative="1" as="geometry" />
        </mxCell>
        <mxCell id="aYfPXwyvseCjfm_76mP0-20" value="&lt;b&gt;&lt;font style=&quot;font-size: 11px;&quot;&gt;authentication algorithm&lt;/font&gt;&lt;/b&gt;" style="rounded=0;whiteSpace=wrap;html=1;fontSize=10;dashed=1;dashPattern=1 4;strokeColor=default;movable=1;resizable=1;rotatable=1;deletable=1;editable=1;locked=0;connectable=1;" parent="QVcEyd29Xkg5I18frVKQ-31" vertex="1">
          <mxGeometry x="177" y="30" width="120" height="40" as="geometry" />
        </mxCell>
        <mxCell id="aYfPXwyvseCjfm_76mP0-23" style="edgeStyle=orthogonalEdgeStyle;rounded=0;orthogonalLoop=1;jettySize=auto;html=1;exitX=0.5;exitY=1;exitDx=0;exitDy=0;entryX=0.5;entryY=0;entryDx=0;entryDy=0;endArrow=none;startFill=0;dashed=1;dashPattern=1 4;movable=1;resizable=1;rotatable=1;deletable=1;editable=1;locked=0;connectable=1;" parent="QVcEyd29Xkg5I18frVKQ-31" source="aYfPXwyvseCjfm_76mP0-22" target="aYfPXwyvseCjfm_76mP0-2" edge="1">
          <mxGeometry relative="1" as="geometry" />
        </mxCell>
        <mxCell id="aYfPXwyvseCjfm_76mP0-22" value="&lt;b&gt;&lt;font style=&quot;font-size: 11px;&quot;&gt;authentication algorithm&lt;/font&gt;&lt;/b&gt;" style="rounded=0;whiteSpace=wrap;html=1;fontSize=10;dashed=1;dashPattern=1 4;strokeColor=default;movable=1;resizable=1;rotatable=1;deletable=1;editable=1;locked=0;connectable=1;" parent="QVcEyd29Xkg5I18frVKQ-31" vertex="1">
          <mxGeometry x="372" y="30" width="120" height="40" as="geometry" />
        </mxCell>
        <mxCell id="aYfPXwyvseCjfm_76mP0-25" style="edgeStyle=orthogonalEdgeStyle;rounded=0;orthogonalLoop=1;jettySize=auto;html=1;entryX=0.5;entryY=1;entryDx=0;entryDy=0;dashed=1;dashPattern=1 4;endArrow=none;startFill=0;movable=1;resizable=1;rotatable=1;deletable=1;editable=1;locked=0;connectable=1;" parent="QVcEyd29Xkg5I18frVKQ-31" source="aYfPXwyvseCjfm_76mP0-24" target="aYfPXwyvseCjfm_76mP0-1" edge="1">
          <mxGeometry relative="1" as="geometry" />
        </mxCell>
        <mxCell id="6Zuxu7poRV31IZOU_Pu6-0" style="edgeStyle=orthogonalEdgeStyle;rounded=0;orthogonalLoop=1;jettySize=auto;html=1;exitX=0.5;exitY=1;exitDx=0;exitDy=0;entryX=0.5;entryY=0;entryDx=0;entryDy=0;dashed=1;dashPattern=1 4;endArrow=none;startFill=0;movable=1;resizable=1;rotatable=1;deletable=1;editable=1;locked=0;connectable=1;" parent="QVcEyd29Xkg5I18frVKQ-31" source="aYfPXwyvseCjfm_76mP0-24" target="aYfPXwyvseCjfm_76mP0-28" edge="1">
          <mxGeometry relative="1" as="geometry" />
        </mxCell>
        <mxCell id="aYfPXwyvseCjfm_76mP0-24" value="&lt;b&gt;&lt;font style=&quot;font-size: 11px;&quot;&gt;obfuscation algorithm&lt;/font&gt;&lt;/b&gt;" style="rounded=0;whiteSpace=wrap;html=1;fontSize=10;dashed=1;dashPattern=1 4;strokeColor=default;movable=1;resizable=1;rotatable=1;deletable=1;editable=1;locked=0;connectable=1;" parent="QVcEyd29Xkg5I18frVKQ-31" vertex="1">
          <mxGeometry x="178.5" y="209" width="103" height="40" as="geometry" />
        </mxCell>
        <mxCell id="aYfPXwyvseCjfm_76mP0-27" style="edgeStyle=orthogonalEdgeStyle;rounded=0;orthogonalLoop=1;jettySize=auto;html=1;entryX=0.5;entryY=1;entryDx=0;entryDy=0;dashed=1;dashPattern=1 4;endArrow=none;startFill=0;movable=1;resizable=1;rotatable=1;deletable=1;editable=1;locked=0;connectable=1;" parent="QVcEyd29Xkg5I18frVKQ-31" source="aYfPXwyvseCjfm_76mP0-26" target="aYfPXwyvseCjfm_76mP0-2" edge="1">
          <mxGeometry relative="1" as="geometry" />
        </mxCell>
        <mxCell id="aYfPXwyvseCjfm_76mP0-26" value="&lt;b&gt;&lt;font style=&quot;font-size: 11px;&quot;&gt;deobfuscation algorithm&lt;/font&gt;&lt;/b&gt;" style="rounded=0;whiteSpace=wrap;html=1;fontSize=10;dashed=1;dashPattern=1 4;strokeColor=default;movable=1;resizable=1;rotatable=1;deletable=1;editable=1;locked=0;connectable=1;" parent="QVcEyd29Xkg5I18frVKQ-31" vertex="1">
          <mxGeometry x="372" y="209" width="120" height="40" as="geometry" />
        </mxCell>
        <mxCell id="aYfPXwyvseCjfm_76mP0-28" value="&lt;font style=&quot;font-size: 15px;&quot;&gt;Password Vault&lt;/font&gt;" style="ellipse;whiteSpace=wrap;html=1;fillColor=#d5e8d4;strokeColor=#82b366;movable=1;resizable=1;rotatable=1;deletable=1;editable=1;locked=0;connectable=1;" parent="QVcEyd29Xkg5I18frVKQ-31" vertex="1">
          <mxGeometry x="191.25" y="290" width="77.5" height="70" as="geometry" />
        </mxCell>
        <mxCell id="aYfPXwyvseCjfm_76mP0-32" value="get credential" style="text;html=1;align=center;verticalAlign=middle;whiteSpace=wrap;rounded=0;fontSize=11;movable=1;resizable=1;rotatable=1;deletable=1;editable=1;locked=0;connectable=1;" parent="QVcEyd29Xkg5I18frVKQ-31" vertex="1">
          <mxGeometry x="231" y="254" width="77" height="30" as="geometry" />
        </mxCell>
        <mxCell id="UfaGl24B7d4U6y9Angqy-1" value="" style="group" parent="WIyWlLk6GJQsqaUBKTNV-1" vertex="1" connectable="0">
          <mxGeometry x="1380" y="48" width="770" height="370" as="geometry" />
        </mxCell>
        <mxCell id="gFA3nPm106Drj-Kwj3eW-30" value="" style="rounded=0;whiteSpace=wrap;html=1;movable=1;resizable=1;rotatable=1;deletable=1;editable=1;locked=0;connectable=1;" parent="UfaGl24B7d4U6y9Angqy-1" vertex="1">
          <mxGeometry width="770" height="370" as="geometry" />
        </mxCell>
        <mxCell id="gFA3nPm106Drj-Kwj3eW-31" style="edgeStyle=orthogonalEdgeStyle;rounded=0;orthogonalLoop=1;jettySize=auto;html=1;exitX=1;exitY=0.5;exitDx=0;exitDy=0;movable=0;resizable=0;rotatable=0;deletable=0;editable=0;locked=1;connectable=0;" parent="UfaGl24B7d4U6y9Angqy-1" source="gFA3nPm106Drj-Kwj3eW-32" target="gFA3nPm106Drj-Kwj3eW-34" edge="1">
          <mxGeometry relative="1" as="geometry" />
        </mxCell>
        <mxCell id="gFA3nPm106Drj-Kwj3eW-62" style="edgeStyle=orthogonalEdgeStyle;rounded=0;orthogonalLoop=1;jettySize=auto;html=1;exitX=0.5;exitY=1;exitDx=0;exitDy=0;strokeColor=#FF0000;strokeWidth=3;" parent="UfaGl24B7d4U6y9Angqy-1" source="gFA3nPm106Drj-Kwj3eW-32" edge="1">
          <mxGeometry relative="1" as="geometry">
            <mxPoint x="280" y="322.0000000000001" as="targetPoint" />
            <Array as="points">
              <mxPoint x="147" y="238" />
              <mxPoint x="220" y="238" />
              <mxPoint x="220" y="322" />
            </Array>
          </mxGeometry>
        </mxCell>
        <mxCell id="gFA3nPm106Drj-Kwj3eW-32" value="&lt;font style=&quot;font-size: 16px;&quot;&gt;GLPI&lt;/font&gt;" style="rounded=1;whiteSpace=wrap;html=1;fillColor=#dae8fc;strokeColor=#6c8ebf;movable=1;resizable=1;rotatable=1;deletable=1;editable=1;locked=0;connectable=1;" parent="UfaGl24B7d4U6y9Angqy-1" vertex="1">
          <mxGeometry x="102" y="95" width="90" height="60" as="geometry" />
        </mxCell>
        <mxCell id="gFA3nPm106Drj-Kwj3eW-33" style="edgeStyle=orthogonalEdgeStyle;rounded=0;orthogonalLoop=1;jettySize=auto;html=1;exitX=1;exitY=0.5;exitDx=0;exitDy=0;entryX=0;entryY=0.5;entryDx=0;entryDy=0;movable=0;resizable=0;rotatable=0;deletable=0;editable=0;locked=1;connectable=0;" parent="UfaGl24B7d4U6y9Angqy-1" source="gFA3nPm106Drj-Kwj3eW-34" target="gFA3nPm106Drj-Kwj3eW-36" edge="1">
          <mxGeometry relative="1" as="geometry" />
        </mxCell>
        <mxCell id="gFA3nPm106Drj-Kwj3eW-34" value="&lt;font style=&quot;font-size: 16px;&quot;&gt;&lt;b&gt;NIA&lt;/b&gt;&lt;/font&gt;&lt;div&gt;&lt;font style=&quot;font-size: 16px;&quot;&gt;&lt;b&gt;Monitor&lt;/b&gt;&lt;/font&gt;&lt;/div&gt;" style="rounded=1;whiteSpace=wrap;html=1;fillColor=#f8cecc;strokeColor=#b85450;movable=0;resizable=0;rotatable=0;deletable=0;editable=0;locked=1;connectable=0;" parent="UfaGl24B7d4U6y9Angqy-1" vertex="1">
          <mxGeometry x="275" y="95" width="90" height="60" as="geometry" />
        </mxCell>
        <mxCell id="gFA3nPm106Drj-Kwj3eW-35" style="edgeStyle=orthogonalEdgeStyle;rounded=0;orthogonalLoop=1;jettySize=auto;html=1;exitX=1;exitY=0.5;exitDx=0;exitDy=0;movable=0;resizable=0;rotatable=0;deletable=0;editable=0;locked=1;connectable=0;" parent="UfaGl24B7d4U6y9Angqy-1" source="gFA3nPm106Drj-Kwj3eW-36" target="gFA3nPm106Drj-Kwj3eW-38" edge="1">
          <mxGeometry relative="1" as="geometry" />
        </mxCell>
        <mxCell id="gFA3nPm106Drj-Kwj3eW-36" value="&lt;font style=&quot;font-size: 16px;&quot;&gt;&lt;b&gt;NIA&amp;nbsp;&lt;/b&gt;&lt;/font&gt;&lt;div&gt;&lt;font style=&quot;font-size: 16px;&quot;&gt;&lt;b&gt;Agent&lt;/b&gt;&lt;/font&gt;&lt;/div&gt;" style="rounded=1;whiteSpace=wrap;html=1;fillColor=#f8cecc;strokeColor=#b85450;movable=0;resizable=0;rotatable=0;deletable=0;editable=0;locked=1;connectable=0;" parent="UfaGl24B7d4U6y9Angqy-1" vertex="1">
          <mxGeometry x="477" y="95" width="90" height="60" as="geometry" />
        </mxCell>
        <mxCell id="gFA3nPm106Drj-Kwj3eW-37" style="edgeStyle=orthogonalEdgeStyle;rounded=0;orthogonalLoop=1;jettySize=auto;html=1;exitX=0.302;exitY=0.988;exitDx=0;exitDy=0;entryX=0.75;entryY=1;entryDx=0;entryDy=0;dashed=1;movable=1;resizable=1;rotatable=1;deletable=1;editable=1;locked=0;connectable=1;exitPerimeter=0;" parent="UfaGl24B7d4U6y9Angqy-1" source="gFA3nPm106Drj-Kwj3eW-38" target="gFA3nPm106Drj-Kwj3eW-32" edge="1">
          <mxGeometry relative="1" as="geometry" />
        </mxCell>
        <mxCell id="gFA3nPm106Drj-Kwj3eW-38" value="&lt;font style=&quot;font-size: 16px;&quot;&gt;MariaDB&lt;/font&gt;" style="rounded=1;whiteSpace=wrap;html=1;fillColor=#dae8fc;strokeColor=#6c8ebf;movable=1;resizable=1;rotatable=1;deletable=1;editable=1;locked=0;connectable=1;" parent="UfaGl24B7d4U6y9Angqy-1" vertex="1">
          <mxGeometry x="661" y="95" width="90" height="60" as="geometry" />
        </mxCell>
        <mxCell id="gFA3nPm106Drj-Kwj3eW-39" value="request access resource" style="text;html=1;align=center;verticalAlign=middle;whiteSpace=wrap;rounded=0;fontSize=11;movable=0;resizable=0;rotatable=0;deletable=0;editable=0;locked=1;connectable=0;" parent="UfaGl24B7d4U6y9Angqy-1" vertex="1">
          <mxGeometry x="188" y="94" width="89" height="30" as="geometry" />
        </mxCell>
        <mxCell id="gFA3nPm106Drj-Kwj3eW-40" value="request HMAC with signature" style="text;html=1;align=center;verticalAlign=middle;whiteSpace=wrap;rounded=0;fontSize=11;movable=0;resizable=0;rotatable=0;deletable=0;editable=0;locked=1;connectable=0;" parent="UfaGl24B7d4U6y9Angqy-1" vertex="1">
          <mxGeometry x="365" y="91" width="110" height="30" as="geometry" />
        </mxCell>
        <mxCell id="gFA3nPm106Drj-Kwj3eW-41" value="request with&lt;div&gt;credential obfuscated&lt;/div&gt;" style="text;html=1;align=center;verticalAlign=middle;whiteSpace=wrap;rounded=0;fontSize=11;movable=0;resizable=0;rotatable=0;deletable=0;editable=0;locked=1;connectable=0;" parent="UfaGl24B7d4U6y9Angqy-1" vertex="1">
          <mxGeometry x="361" y="127" width="120" height="30" as="geometry" />
        </mxCell>
        <mxCell id="gFA3nPm106Drj-Kwj3eW-42" value="validate HMAC&amp;nbsp;" style="text;html=1;align=center;verticalAlign=middle;whiteSpace=wrap;rounded=0;fontSize=11;movable=0;resizable=0;rotatable=0;deletable=0;editable=0;locked=1;connectable=0;" parent="UfaGl24B7d4U6y9Angqy-1" vertex="1">
          <mxGeometry x="569" y="100" width="89" height="30" as="geometry" />
        </mxCell>
        <mxCell id="gFA3nPm106Drj-Kwj3eW-43" value="request resource" style="text;html=1;align=center;verticalAlign=middle;whiteSpace=wrap;rounded=0;fontSize=11;movable=0;resizable=0;rotatable=0;deletable=0;editable=0;locked=1;connectable=0;" parent="UfaGl24B7d4U6y9Angqy-1" vertex="1">
          <mxGeometry x="567" y="122" width="89" height="26" as="geometry" />
        </mxCell>
        <mxCell id="gFA3nPm106Drj-Kwj3eW-44" value="active connection" style="text;html=1;align=center;verticalAlign=middle;whiteSpace=wrap;rounded=0;fontSize=11;movable=0;resizable=0;rotatable=0;deletable=0;editable=0;locked=1;connectable=0;" parent="UfaGl24B7d4U6y9Angqy-1" vertex="1">
          <mxGeometry x="381.5" y="170" width="89" height="30" as="geometry" />
        </mxCell>
        <mxCell id="gFA3nPm106Drj-Kwj3eW-45" style="edgeStyle=orthogonalEdgeStyle;rounded=0;orthogonalLoop=1;jettySize=auto;html=1;entryX=0.5;entryY=0;entryDx=0;entryDy=0;dashed=1;dashPattern=1 4;endArrow=none;startFill=0;movable=0;resizable=0;rotatable=0;deletable=0;editable=0;locked=1;connectable=0;" parent="UfaGl24B7d4U6y9Angqy-1" source="gFA3nPm106Drj-Kwj3eW-46" target="gFA3nPm106Drj-Kwj3eW-32" edge="1">
          <mxGeometry relative="1" as="geometry" />
        </mxCell>
        <mxCell id="gFA3nPm106Drj-Kwj3eW-46" value="&lt;b&gt;&lt;font style=&quot;font-size: 11px;&quot;&gt;non-interactive process generated by a request from the client&lt;/font&gt;&lt;/b&gt;" style="rounded=0;whiteSpace=wrap;html=1;fontSize=10;dashed=1;dashPattern=1 4;strokeColor=default;movable=0;resizable=0;rotatable=0;deletable=0;editable=0;locked=1;connectable=0;" parent="UfaGl24B7d4U6y9Angqy-1" vertex="1">
          <mxGeometry x="102" y="15" width="128" height="50" as="geometry" />
        </mxCell>
        <mxCell id="gFA3nPm106Drj-Kwj3eW-47" style="edgeStyle=orthogonalEdgeStyle;rounded=0;orthogonalLoop=1;jettySize=auto;html=1;exitX=0.5;exitY=1;exitDx=0;exitDy=0;entryX=0.5;entryY=0;entryDx=0;entryDy=0;dashed=1;dashPattern=1 4;endArrow=none;startFill=0;movable=0;resizable=0;rotatable=0;deletable=0;editable=0;locked=1;connectable=0;" parent="UfaGl24B7d4U6y9Angqy-1" source="gFA3nPm106Drj-Kwj3eW-48" target="gFA3nPm106Drj-Kwj3eW-34" edge="1">
          <mxGeometry relative="1" as="geometry" />
        </mxCell>
        <mxCell id="gFA3nPm106Drj-Kwj3eW-48" value="&lt;b&gt;&lt;font style=&quot;font-size: 11px;&quot;&gt;authentication algorithm&lt;/font&gt;&lt;/b&gt;" style="rounded=0;whiteSpace=wrap;html=1;fontSize=10;dashed=1;dashPattern=1 4;strokeColor=default;movable=1;resizable=1;rotatable=1;deletable=1;editable=1;locked=0;connectable=1;" parent="UfaGl24B7d4U6y9Angqy-1" vertex="1">
          <mxGeometry x="267" y="25" width="120" height="40" as="geometry" />
        </mxCell>
        <mxCell id="gFA3nPm106Drj-Kwj3eW-49" style="edgeStyle=orthogonalEdgeStyle;rounded=0;orthogonalLoop=1;jettySize=auto;html=1;exitX=0.5;exitY=1;exitDx=0;exitDy=0;entryX=0.5;entryY=0;entryDx=0;entryDy=0;endArrow=none;startFill=0;dashed=1;dashPattern=1 4;movable=0;resizable=0;rotatable=0;deletable=0;editable=0;locked=1;connectable=0;" parent="UfaGl24B7d4U6y9Angqy-1" source="gFA3nPm106Drj-Kwj3eW-50" target="gFA3nPm106Drj-Kwj3eW-36" edge="1">
          <mxGeometry relative="1" as="geometry" />
        </mxCell>
        <mxCell id="gFA3nPm106Drj-Kwj3eW-50" value="&lt;b&gt;&lt;font style=&quot;font-size: 11px;&quot;&gt;authentication algorithm&lt;/font&gt;&lt;/b&gt;" style="rounded=0;whiteSpace=wrap;html=1;fontSize=10;dashed=1;dashPattern=1 4;strokeColor=default;movable=1;resizable=1;rotatable=1;deletable=1;editable=1;locked=0;connectable=1;" parent="UfaGl24B7d4U6y9Angqy-1" vertex="1">
          <mxGeometry x="462" y="25" width="120" height="40" as="geometry" />
        </mxCell>
        <mxCell id="gFA3nPm106Drj-Kwj3eW-51" style="edgeStyle=orthogonalEdgeStyle;rounded=0;orthogonalLoop=1;jettySize=auto;html=1;entryX=0.5;entryY=1;entryDx=0;entryDy=0;dashed=1;dashPattern=1 4;endArrow=none;startFill=0;movable=0;resizable=0;rotatable=0;deletable=0;editable=0;locked=1;connectable=0;" parent="UfaGl24B7d4U6y9Angqy-1" source="gFA3nPm106Drj-Kwj3eW-53" target="gFA3nPm106Drj-Kwj3eW-34" edge="1">
          <mxGeometry relative="1" as="geometry" />
        </mxCell>
        <mxCell id="gFA3nPm106Drj-Kwj3eW-52" style="edgeStyle=orthogonalEdgeStyle;rounded=0;orthogonalLoop=1;jettySize=auto;html=1;exitX=0.5;exitY=1;exitDx=0;exitDy=0;entryX=0.5;entryY=0;entryDx=0;entryDy=0;dashed=1;dashPattern=1 4;endArrow=none;startFill=0;movable=0;resizable=0;rotatable=0;deletable=0;editable=0;locked=1;connectable=0;" parent="UfaGl24B7d4U6y9Angqy-1" source="gFA3nPm106Drj-Kwj3eW-53" target="gFA3nPm106Drj-Kwj3eW-56" edge="1">
          <mxGeometry relative="1" as="geometry" />
        </mxCell>
        <mxCell id="gFA3nPm106Drj-Kwj3eW-53" value="&lt;b&gt;&lt;font style=&quot;font-size: 11px;&quot;&gt;obfuscation algorithm&lt;/font&gt;&lt;/b&gt;" style="rounded=0;whiteSpace=wrap;html=1;fontSize=10;dashed=1;dashPattern=1 4;strokeColor=default;movable=1;resizable=1;rotatable=1;deletable=1;editable=1;locked=0;connectable=1;" parent="UfaGl24B7d4U6y9Angqy-1" vertex="1">
          <mxGeometry x="268.5" y="204" width="103" height="40" as="geometry" />
        </mxCell>
        <mxCell id="gFA3nPm106Drj-Kwj3eW-54" style="edgeStyle=orthogonalEdgeStyle;rounded=0;orthogonalLoop=1;jettySize=auto;html=1;entryX=0.5;entryY=1;entryDx=0;entryDy=0;dashed=1;dashPattern=1 4;endArrow=none;startFill=0;movable=0;resizable=0;rotatable=0;deletable=0;editable=0;locked=1;connectable=0;" parent="UfaGl24B7d4U6y9Angqy-1" source="gFA3nPm106Drj-Kwj3eW-55" target="gFA3nPm106Drj-Kwj3eW-36" edge="1">
          <mxGeometry relative="1" as="geometry" />
        </mxCell>
        <mxCell id="gFA3nPm106Drj-Kwj3eW-55" value="&lt;b&gt;&lt;font style=&quot;font-size: 11px;&quot;&gt;deobfuscation algorithm&lt;/font&gt;&lt;/b&gt;" style="rounded=0;whiteSpace=wrap;html=1;fontSize=10;dashed=1;dashPattern=1 4;strokeColor=default;movable=1;resizable=1;rotatable=1;deletable=1;editable=1;locked=0;connectable=1;" parent="UfaGl24B7d4U6y9Angqy-1" vertex="1">
          <mxGeometry x="462" y="204" width="120" height="40" as="geometry" />
        </mxCell>
        <mxCell id="gFA3nPm106Drj-Kwj3eW-64" style="edgeStyle=orthogonalEdgeStyle;rounded=0;orthogonalLoop=1;jettySize=auto;html=1;entryX=0.5;entryY=1;entryDx=0;entryDy=0;strokeColor=#FF0000;strokeWidth=3;" parent="UfaGl24B7d4U6y9Angqy-1" source="gFA3nPm106Drj-Kwj3eW-56" target="gFA3nPm106Drj-Kwj3eW-38" edge="1">
          <mxGeometry relative="1" as="geometry" />
        </mxCell>
        <mxCell id="gFA3nPm106Drj-Kwj3eW-56" value="&lt;font style=&quot;font-size: 15px;&quot;&gt;Password Vault&lt;/font&gt;" style="ellipse;whiteSpace=wrap;html=1;fillColor=#d5e8d4;strokeColor=#82b366;movable=1;resizable=1;rotatable=1;deletable=1;editable=1;locked=0;connectable=1;" parent="UfaGl24B7d4U6y9Angqy-1" vertex="1">
          <mxGeometry x="281.25" y="285" width="77.5" height="70" as="geometry" />
        </mxCell>
        <mxCell id="gFA3nPm106Drj-Kwj3eW-57" value="get credential" style="text;html=1;align=center;verticalAlign=middle;whiteSpace=wrap;rounded=0;fontSize=11;movable=1;resizable=1;rotatable=1;deletable=1;editable=1;locked=0;connectable=1;" parent="UfaGl24B7d4U6y9Angqy-1" vertex="1">
          <mxGeometry x="321" y="250" width="77" height="30" as="geometry" />
        </mxCell>
        <mxCell id="gFA3nPm106Drj-Kwj3eW-59" style="edgeStyle=orthogonalEdgeStyle;rounded=0;orthogonalLoop=1;jettySize=auto;html=1;" parent="UfaGl24B7d4U6y9Angqy-1" source="gFA3nPm106Drj-Kwj3eW-58" edge="1">
          <mxGeometry relative="1" as="geometry">
            <mxPoint x="100" y="125" as="targetPoint" />
          </mxGeometry>
        </mxCell>
        <mxCell id="gFA3nPm106Drj-Kwj3eW-58" value="" style="outlineConnect=0;dashed=0;verticalLabelPosition=bottom;verticalAlign=top;align=center;html=1;shape=mxgraph.aws3.user;fillColor=#FF0000;gradientColor=none;" parent="UfaGl24B7d4U6y9Angqy-1" vertex="1">
          <mxGeometry x="10" y="104.5" width="30" height="41" as="geometry" />
        </mxCell>
        <mxCell id="gFA3nPm106Drj-Kwj3eW-60" value="user" style="text;html=1;align=center;verticalAlign=middle;whiteSpace=wrap;rounded=0;fontSize=11;movable=1;resizable=1;rotatable=1;deletable=1;editable=1;locked=0;connectable=1;fontStyle=1" parent="UfaGl24B7d4U6y9Angqy-1" vertex="1">
          <mxGeometry x="3.25" y="138" width="43.5" height="32" as="geometry" />
        </mxCell>
        <mxCell id="gFA3nPm106Drj-Kwj3eW-69" value="&lt;font style=&quot;font-size: 30px; color: rgb(255, 0, 0);&quot;&gt;&lt;b style=&quot;&quot;&gt;1&lt;/b&gt;&lt;/font&gt;" style="ellipse;whiteSpace=wrap;html=1;aspect=fixed;strokeColor=#FF0000;" parent="UfaGl24B7d4U6y9Angqy-1" vertex="1">
          <mxGeometry x="170" y="245" width="38" height="38" as="geometry" />
        </mxCell>
        <mxCell id="gFA3nPm106Drj-Kwj3eW-70" value="&lt;font style=&quot;font-size: 30px; color: rgb(255, 0, 0);&quot;&gt;&lt;b&gt;2&lt;/b&gt;&lt;/font&gt;" style="ellipse;whiteSpace=wrap;html=1;aspect=fixed;strokeColor=#FF0000;" parent="UfaGl24B7d4U6y9Angqy-1" vertex="1">
          <mxGeometry x="520" y="276" width="38" height="38" as="geometry" />
        </mxCell>
        <mxCell id="gFA3nPm106Drj-Kwj3eW-156" value="&lt;b&gt;&lt;font style=&quot;color: rgb(255, 0, 0); font-size: 14px;&quot;&gt;credential valid&lt;/font&gt;&lt;/b&gt;&lt;div&gt;&lt;b&gt;&lt;font style=&quot;color: rgb(255, 0, 0); font-size: 14px;&quot;&gt;for 8 hours&lt;/font&gt;&lt;/b&gt;&lt;/div&gt;" style="rounded=0;whiteSpace=wrap;html=1;fontSize=10;dashed=1;dashPattern=1 4;strokeColor=#FF0000;movable=1;resizable=1;rotatable=1;deletable=1;editable=1;locked=0;connectable=1;" parent="UfaGl24B7d4U6y9Angqy-1" vertex="1">
          <mxGeometry x="10" y="170" width="120" height="50" as="geometry" />
        </mxCell>
        <mxCell id="UfaGl24B7d4U6y9Angqy-2" value="" style="group" parent="WIyWlLk6GJQsqaUBKTNV-1" vertex="1" connectable="0">
          <mxGeometry x="1380" y="450" width="770" height="370" as="geometry" />
        </mxCell>
        <mxCell id="gFA3nPm106Drj-Kwj3eW-73" value="" style="rounded=0;whiteSpace=wrap;html=1;movable=1;resizable=1;rotatable=1;deletable=1;editable=1;locked=0;connectable=1;" parent="UfaGl24B7d4U6y9Angqy-2" vertex="1">
          <mxGeometry width="770" height="370" as="geometry" />
        </mxCell>
        <mxCell id="gFA3nPm106Drj-Kwj3eW-74" style="edgeStyle=orthogonalEdgeStyle;rounded=0;orthogonalLoop=1;jettySize=auto;html=1;exitX=1;exitY=0.5;exitDx=0;exitDy=0;movable=0;resizable=0;rotatable=0;deletable=0;editable=0;locked=1;connectable=0;" parent="UfaGl24B7d4U6y9Angqy-2" source="gFA3nPm106Drj-Kwj3eW-76" target="gFA3nPm106Drj-Kwj3eW-78" edge="1">
          <mxGeometry relative="1" as="geometry" />
        </mxCell>
        <mxCell id="gFA3nPm106Drj-Kwj3eW-108" style="edgeStyle=orthogonalEdgeStyle;rounded=0;orthogonalLoop=1;jettySize=auto;html=1;exitX=0.5;exitY=1;exitDx=0;exitDy=0;entryX=0;entryY=0.5;entryDx=0;entryDy=0;strokeColor=#FF0000;strokeWidth=3;" parent="UfaGl24B7d4U6y9Angqy-2" source="gFA3nPm106Drj-Kwj3eW-76" target="gFA3nPm106Drj-Kwj3eW-97" edge="1">
          <mxGeometry relative="1" as="geometry">
            <mxPoint x="146.82758620689674" y="230" as="targetPoint" />
          </mxGeometry>
        </mxCell>
        <mxCell id="gFA3nPm106Drj-Kwj3eW-76" value="&lt;font style=&quot;font-size: 16px;&quot;&gt;GLPI&lt;/font&gt;" style="rounded=1;whiteSpace=wrap;html=1;fillColor=#dae8fc;strokeColor=#6c8ebf;movable=1;resizable=1;rotatable=1;deletable=1;editable=1;locked=0;connectable=1;" parent="UfaGl24B7d4U6y9Angqy-2" vertex="1">
          <mxGeometry x="102" y="95" width="90" height="60" as="geometry" />
        </mxCell>
        <mxCell id="gFA3nPm106Drj-Kwj3eW-77" style="edgeStyle=orthogonalEdgeStyle;rounded=0;orthogonalLoop=1;jettySize=auto;html=1;exitX=1;exitY=0.5;exitDx=0;exitDy=0;entryX=0;entryY=0.5;entryDx=0;entryDy=0;movable=0;resizable=0;rotatable=0;deletable=0;editable=0;locked=1;connectable=0;" parent="UfaGl24B7d4U6y9Angqy-2" source="gFA3nPm106Drj-Kwj3eW-78" target="gFA3nPm106Drj-Kwj3eW-80" edge="1">
          <mxGeometry relative="1" as="geometry" />
        </mxCell>
        <mxCell id="gFA3nPm106Drj-Kwj3eW-78" value="&lt;font style=&quot;font-size: 16px;&quot;&gt;&lt;b&gt;NIA&lt;/b&gt;&lt;/font&gt;&lt;div&gt;&lt;font style=&quot;font-size: 16px;&quot;&gt;&lt;b&gt;Monitor&lt;/b&gt;&lt;/font&gt;&lt;/div&gt;" style="rounded=1;whiteSpace=wrap;html=1;fillColor=#f8cecc;strokeColor=#b85450;movable=0;resizable=0;rotatable=0;deletable=0;editable=0;locked=1;connectable=0;" parent="UfaGl24B7d4U6y9Angqy-2" vertex="1">
          <mxGeometry x="275" y="95" width="90" height="60" as="geometry" />
        </mxCell>
        <mxCell id="gFA3nPm106Drj-Kwj3eW-79" style="edgeStyle=orthogonalEdgeStyle;rounded=0;orthogonalLoop=1;jettySize=auto;html=1;exitX=1;exitY=0.5;exitDx=0;exitDy=0;movable=0;resizable=0;rotatable=0;deletable=0;editable=0;locked=1;connectable=0;" parent="UfaGl24B7d4U6y9Angqy-2" source="gFA3nPm106Drj-Kwj3eW-80" target="gFA3nPm106Drj-Kwj3eW-82" edge="1">
          <mxGeometry relative="1" as="geometry" />
        </mxCell>
        <mxCell id="gFA3nPm106Drj-Kwj3eW-80" value="&lt;font style=&quot;font-size: 16px;&quot;&gt;&lt;b&gt;NIA&amp;nbsp;&lt;/b&gt;&lt;/font&gt;&lt;div&gt;&lt;font style=&quot;font-size: 16px;&quot;&gt;&lt;b&gt;Agent&lt;/b&gt;&lt;/font&gt;&lt;/div&gt;" style="rounded=1;whiteSpace=wrap;html=1;fillColor=#f8cecc;strokeColor=#b85450;movable=0;resizable=0;rotatable=0;deletable=0;editable=0;locked=1;connectable=0;" parent="UfaGl24B7d4U6y9Angqy-2" vertex="1">
          <mxGeometry x="477" y="95" width="90" height="60" as="geometry" />
        </mxCell>
        <mxCell id="gFA3nPm106Drj-Kwj3eW-81" style="edgeStyle=orthogonalEdgeStyle;rounded=0;orthogonalLoop=1;jettySize=auto;html=1;exitX=0.302;exitY=0.988;exitDx=0;exitDy=0;entryX=0.75;entryY=1;entryDx=0;entryDy=0;dashed=1;movable=1;resizable=1;rotatable=1;deletable=1;editable=1;locked=0;connectable=1;exitPerimeter=0;" parent="UfaGl24B7d4U6y9Angqy-2" source="gFA3nPm106Drj-Kwj3eW-82" target="gFA3nPm106Drj-Kwj3eW-76" edge="1">
          <mxGeometry relative="1" as="geometry" />
        </mxCell>
        <mxCell id="gFA3nPm106Drj-Kwj3eW-82" value="&lt;font style=&quot;font-size: 16px;&quot;&gt;MariaDB&lt;/font&gt;" style="rounded=1;whiteSpace=wrap;html=1;fillColor=#dae8fc;strokeColor=#6c8ebf;movable=1;resizable=1;rotatable=1;deletable=1;editable=1;locked=0;connectable=1;" parent="UfaGl24B7d4U6y9Angqy-2" vertex="1">
          <mxGeometry x="661" y="95" width="90" height="60" as="geometry" />
        </mxCell>
        <mxCell id="gFA3nPm106Drj-Kwj3eW-83" value="request access resource" style="text;html=1;align=center;verticalAlign=middle;whiteSpace=wrap;rounded=0;fontSize=11;movable=0;resizable=0;rotatable=0;deletable=0;editable=0;locked=1;connectable=0;" parent="UfaGl24B7d4U6y9Angqy-2" vertex="1">
          <mxGeometry x="188" y="94" width="89" height="30" as="geometry" />
        </mxCell>
        <mxCell id="gFA3nPm106Drj-Kwj3eW-84" value="request HMAC with signature" style="text;html=1;align=center;verticalAlign=middle;whiteSpace=wrap;rounded=0;fontSize=11;movable=0;resizable=0;rotatable=0;deletable=0;editable=0;locked=1;connectable=0;" parent="UfaGl24B7d4U6y9Angqy-2" vertex="1">
          <mxGeometry x="365" y="91" width="110" height="30" as="geometry" />
        </mxCell>
        <mxCell id="gFA3nPm106Drj-Kwj3eW-85" value="request with&lt;div&gt;credential obfuscated&lt;/div&gt;" style="text;html=1;align=center;verticalAlign=middle;whiteSpace=wrap;rounded=0;fontSize=11;movable=0;resizable=0;rotatable=0;deletable=0;editable=0;locked=1;connectable=0;" parent="UfaGl24B7d4U6y9Angqy-2" vertex="1">
          <mxGeometry x="361" y="127" width="120" height="30" as="geometry" />
        </mxCell>
        <mxCell id="gFA3nPm106Drj-Kwj3eW-86" value="validate HMAC&amp;nbsp;" style="text;html=1;align=center;verticalAlign=middle;whiteSpace=wrap;rounded=0;fontSize=11;movable=0;resizable=0;rotatable=0;deletable=0;editable=0;locked=1;connectable=0;" parent="UfaGl24B7d4U6y9Angqy-2" vertex="1">
          <mxGeometry x="569" y="100" width="89" height="30" as="geometry" />
        </mxCell>
        <mxCell id="gFA3nPm106Drj-Kwj3eW-87" value="request resource" style="text;html=1;align=center;verticalAlign=middle;whiteSpace=wrap;rounded=0;fontSize=11;movable=0;resizable=0;rotatable=0;deletable=0;editable=0;locked=1;connectable=0;" parent="UfaGl24B7d4U6y9Angqy-2" vertex="1">
          <mxGeometry x="567" y="122" width="89" height="26" as="geometry" />
        </mxCell>
        <mxCell id="gFA3nPm106Drj-Kwj3eW-88" value="active connection" style="text;html=1;align=center;verticalAlign=middle;whiteSpace=wrap;rounded=0;fontSize=11;movable=0;resizable=0;rotatable=0;deletable=0;editable=0;locked=1;connectable=0;" parent="UfaGl24B7d4U6y9Angqy-2" vertex="1">
          <mxGeometry x="381.5" y="170" width="89" height="30" as="geometry" />
        </mxCell>
        <mxCell id="gFA3nPm106Drj-Kwj3eW-89" style="edgeStyle=orthogonalEdgeStyle;rounded=0;orthogonalLoop=1;jettySize=auto;html=1;entryX=0.5;entryY=0;entryDx=0;entryDy=0;dashed=1;dashPattern=1 4;endArrow=none;startFill=0;movable=0;resizable=0;rotatable=0;deletable=0;editable=0;locked=1;connectable=0;" parent="UfaGl24B7d4U6y9Angqy-2" source="gFA3nPm106Drj-Kwj3eW-90" target="gFA3nPm106Drj-Kwj3eW-76" edge="1">
          <mxGeometry relative="1" as="geometry" />
        </mxCell>
        <mxCell id="gFA3nPm106Drj-Kwj3eW-90" value="&lt;b&gt;&lt;font style=&quot;font-size: 11px;&quot;&gt;non-interactive process generated by a request from the client&lt;/font&gt;&lt;/b&gt;" style="rounded=0;whiteSpace=wrap;html=1;fontSize=10;dashed=1;dashPattern=1 4;strokeColor=default;movable=0;resizable=0;rotatable=0;deletable=0;editable=0;locked=1;connectable=0;" parent="UfaGl24B7d4U6y9Angqy-2" vertex="1">
          <mxGeometry x="102" y="15" width="128" height="50" as="geometry" />
        </mxCell>
        <mxCell id="gFA3nPm106Drj-Kwj3eW-91" style="edgeStyle=orthogonalEdgeStyle;rounded=0;orthogonalLoop=1;jettySize=auto;html=1;exitX=0.5;exitY=1;exitDx=0;exitDy=0;entryX=0.5;entryY=0;entryDx=0;entryDy=0;dashed=1;dashPattern=1 4;endArrow=none;startFill=0;movable=0;resizable=0;rotatable=0;deletable=0;editable=0;locked=1;connectable=0;" parent="UfaGl24B7d4U6y9Angqy-2" source="gFA3nPm106Drj-Kwj3eW-92" target="gFA3nPm106Drj-Kwj3eW-78" edge="1">
          <mxGeometry relative="1" as="geometry" />
        </mxCell>
        <mxCell id="gFA3nPm106Drj-Kwj3eW-92" value="&lt;b&gt;&lt;font style=&quot;font-size: 11px;&quot;&gt;authentication algorithm&lt;/font&gt;&lt;/b&gt;" style="rounded=0;whiteSpace=wrap;html=1;fontSize=10;dashed=1;dashPattern=1 4;strokeColor=default;movable=1;resizable=1;rotatable=1;deletable=1;editable=1;locked=0;connectable=1;" parent="UfaGl24B7d4U6y9Angqy-2" vertex="1">
          <mxGeometry x="267" y="25" width="120" height="40" as="geometry" />
        </mxCell>
        <mxCell id="gFA3nPm106Drj-Kwj3eW-93" style="edgeStyle=orthogonalEdgeStyle;rounded=0;orthogonalLoop=1;jettySize=auto;html=1;exitX=0.5;exitY=1;exitDx=0;exitDy=0;entryX=0.5;entryY=0;entryDx=0;entryDy=0;endArrow=none;startFill=0;dashed=1;dashPattern=1 4;movable=0;resizable=0;rotatable=0;deletable=0;editable=0;locked=1;connectable=0;" parent="UfaGl24B7d4U6y9Angqy-2" source="gFA3nPm106Drj-Kwj3eW-94" target="gFA3nPm106Drj-Kwj3eW-80" edge="1">
          <mxGeometry relative="1" as="geometry" />
        </mxCell>
        <mxCell id="gFA3nPm106Drj-Kwj3eW-94" value="&lt;b&gt;&lt;font style=&quot;font-size: 11px;&quot;&gt;authentication algorithm&lt;/font&gt;&lt;/b&gt;" style="rounded=0;whiteSpace=wrap;html=1;fontSize=10;dashed=1;dashPattern=1 4;strokeColor=default;movable=1;resizable=1;rotatable=1;deletable=1;editable=1;locked=0;connectable=1;" parent="UfaGl24B7d4U6y9Angqy-2" vertex="1">
          <mxGeometry x="462" y="25" width="120" height="40" as="geometry" />
        </mxCell>
        <mxCell id="gFA3nPm106Drj-Kwj3eW-95" style="edgeStyle=orthogonalEdgeStyle;rounded=0;orthogonalLoop=1;jettySize=auto;html=1;entryX=0.5;entryY=1;entryDx=0;entryDy=0;dashed=1;dashPattern=1 4;endArrow=none;startFill=0;movable=0;resizable=0;rotatable=0;deletable=0;editable=0;locked=1;connectable=0;" parent="UfaGl24B7d4U6y9Angqy-2" source="gFA3nPm106Drj-Kwj3eW-97" target="gFA3nPm106Drj-Kwj3eW-78" edge="1">
          <mxGeometry relative="1" as="geometry" />
        </mxCell>
        <mxCell id="gFA3nPm106Drj-Kwj3eW-96" style="edgeStyle=orthogonalEdgeStyle;rounded=0;orthogonalLoop=1;jettySize=auto;html=1;exitX=0.5;exitY=1;exitDx=0;exitDy=0;entryX=0.5;entryY=0;entryDx=0;entryDy=0;dashed=1;dashPattern=1 4;endArrow=none;startFill=0;movable=0;resizable=0;rotatable=0;deletable=0;editable=0;locked=1;connectable=0;" parent="UfaGl24B7d4U6y9Angqy-2" source="gFA3nPm106Drj-Kwj3eW-97" target="gFA3nPm106Drj-Kwj3eW-101" edge="1">
          <mxGeometry relative="1" as="geometry" />
        </mxCell>
        <mxCell id="gFA3nPm106Drj-Kwj3eW-109" style="edgeStyle=orthogonalEdgeStyle;rounded=0;orthogonalLoop=1;jettySize=auto;html=1;strokeColor=#FF0000;strokeWidth=3;" parent="UfaGl24B7d4U6y9Angqy-2" source="gFA3nPm106Drj-Kwj3eW-97" edge="1">
          <mxGeometry relative="1" as="geometry">
            <mxPoint x="460" y="224" as="targetPoint" />
          </mxGeometry>
        </mxCell>
        <mxCell id="gFA3nPm106Drj-Kwj3eW-97" value="&lt;b&gt;&lt;font style=&quot;font-size: 11px;&quot;&gt;obfuscation algorithm&lt;/font&gt;&lt;/b&gt;" style="rounded=0;whiteSpace=wrap;html=1;fontSize=10;dashed=1;dashPattern=1 4;strokeColor=default;movable=1;resizable=1;rotatable=1;deletable=1;editable=1;locked=0;connectable=1;" parent="UfaGl24B7d4U6y9Angqy-2" vertex="1">
          <mxGeometry x="268.5" y="204" width="103" height="40" as="geometry" />
        </mxCell>
        <mxCell id="gFA3nPm106Drj-Kwj3eW-98" style="edgeStyle=orthogonalEdgeStyle;rounded=0;orthogonalLoop=1;jettySize=auto;html=1;entryX=0.5;entryY=1;entryDx=0;entryDy=0;dashed=1;dashPattern=1 4;endArrow=none;startFill=0;movable=0;resizable=0;rotatable=0;deletable=0;editable=0;locked=1;connectable=0;" parent="UfaGl24B7d4U6y9Angqy-2" source="gFA3nPm106Drj-Kwj3eW-99" target="gFA3nPm106Drj-Kwj3eW-80" edge="1">
          <mxGeometry relative="1" as="geometry" />
        </mxCell>
        <mxCell id="gFA3nPm106Drj-Kwj3eW-110" style="edgeStyle=orthogonalEdgeStyle;rounded=0;orthogonalLoop=1;jettySize=auto;html=1;entryX=0.5;entryY=1;entryDx=0;entryDy=0;strokeColor=#FF0000;strokeWidth=3;" parent="UfaGl24B7d4U6y9Angqy-2" source="gFA3nPm106Drj-Kwj3eW-99" target="gFA3nPm106Drj-Kwj3eW-82" edge="1">
          <mxGeometry relative="1" as="geometry">
            <mxPoint x="679.9999999999995" y="224" as="targetPoint" />
          </mxGeometry>
        </mxCell>
        <mxCell id="gFA3nPm106Drj-Kwj3eW-99" value="&lt;b&gt;&lt;font style=&quot;font-size: 11px;&quot;&gt;deobfuscation algorithm&lt;/font&gt;&lt;/b&gt;" style="rounded=0;whiteSpace=wrap;html=1;fontSize=10;dashed=1;dashPattern=1 4;strokeColor=default;movable=1;resizable=1;rotatable=1;deletable=1;editable=1;locked=0;connectable=1;" parent="UfaGl24B7d4U6y9Angqy-2" vertex="1">
          <mxGeometry x="462" y="204" width="120" height="40" as="geometry" />
        </mxCell>
        <mxCell id="gFA3nPm106Drj-Kwj3eW-101" value="&lt;font style=&quot;font-size: 15px;&quot;&gt;Password Vault&lt;/font&gt;" style="ellipse;whiteSpace=wrap;html=1;fillColor=#d5e8d4;strokeColor=#82b366;movable=1;resizable=1;rotatable=1;deletable=1;editable=1;locked=0;connectable=1;" parent="UfaGl24B7d4U6y9Angqy-2" vertex="1">
          <mxGeometry x="281.25" y="285" width="77.5" height="70" as="geometry" />
        </mxCell>
        <mxCell id="gFA3nPm106Drj-Kwj3eW-102" value="get credential" style="text;html=1;align=center;verticalAlign=middle;whiteSpace=wrap;rounded=0;fontSize=11;movable=1;resizable=1;rotatable=1;deletable=1;editable=1;locked=0;connectable=1;" parent="UfaGl24B7d4U6y9Angqy-2" vertex="1">
          <mxGeometry x="321" y="249" width="77" height="30" as="geometry" />
        </mxCell>
        <mxCell id="gFA3nPm106Drj-Kwj3eW-103" style="edgeStyle=orthogonalEdgeStyle;rounded=0;orthogonalLoop=1;jettySize=auto;html=1;" parent="UfaGl24B7d4U6y9Angqy-2" source="gFA3nPm106Drj-Kwj3eW-104" edge="1">
          <mxGeometry relative="1" as="geometry">
            <mxPoint x="100" y="125" as="targetPoint" />
          </mxGeometry>
        </mxCell>
        <mxCell id="gFA3nPm106Drj-Kwj3eW-104" value="" style="outlineConnect=0;dashed=0;verticalLabelPosition=bottom;verticalAlign=top;align=center;html=1;shape=mxgraph.aws3.user;fillColor=#FF0000;gradientColor=none;" parent="UfaGl24B7d4U6y9Angqy-2" vertex="1">
          <mxGeometry x="10" y="104.5" width="30" height="41" as="geometry" />
        </mxCell>
        <mxCell id="gFA3nPm106Drj-Kwj3eW-105" value="user" style="text;html=1;align=center;verticalAlign=middle;whiteSpace=wrap;rounded=0;fontSize=11;movable=1;resizable=1;rotatable=1;deletable=1;editable=1;locked=0;connectable=1;fontStyle=1" parent="UfaGl24B7d4U6y9Angqy-2" vertex="1">
          <mxGeometry x="3.25" y="138" width="43.5" height="32" as="geometry" />
        </mxCell>
        <mxCell id="gFA3nPm106Drj-Kwj3eW-106" value="&lt;font style=&quot;font-size: 30px; color: rgb(255, 0, 0);&quot;&gt;&lt;b style=&quot;&quot;&gt;1&lt;/b&gt;&lt;/font&gt;" style="ellipse;whiteSpace=wrap;html=1;aspect=fixed;strokeColor=#FF0000;" parent="UfaGl24B7d4U6y9Angqy-2" vertex="1">
          <mxGeometry x="192" y="230" width="38" height="38" as="geometry" />
        </mxCell>
        <mxCell id="gFA3nPm106Drj-Kwj3eW-107" value="&lt;font style=&quot;font-size: 30px; color: rgb(255, 0, 0);&quot;&gt;&lt;b&gt;2&lt;/b&gt;&lt;/font&gt;" style="ellipse;whiteSpace=wrap;html=1;aspect=fixed;strokeColor=#FF0000;" parent="UfaGl24B7d4U6y9Angqy-2" vertex="1">
          <mxGeometry x="402" y="230" width="38" height="38" as="geometry" />
        </mxCell>
        <mxCell id="gFA3nPm106Drj-Kwj3eW-111" value="&lt;font style=&quot;font-size: 30px; color: rgb(255, 0, 0);&quot;&gt;&lt;b&gt;3&lt;/b&gt;&lt;/font&gt;" style="ellipse;whiteSpace=wrap;html=1;aspect=fixed;strokeColor=#FF0000;" parent="UfaGl24B7d4U6y9Angqy-2" vertex="1">
          <mxGeometry x="623" y="230" width="38" height="38" as="geometry" />
        </mxCell>
        <mxCell id="UfaGl24B7d4U6y9Angqy-0" value="&lt;b&gt;&lt;font style=&quot;color: rgb(255, 0, 0); font-size: 14px;&quot;&gt;credential valid&lt;/font&gt;&lt;/b&gt;&lt;div&gt;&lt;b&gt;&lt;font style=&quot;color: rgb(255, 0, 0); font-size: 14px;&quot;&gt;for 8 hours&lt;/font&gt;&lt;/b&gt;&lt;/div&gt;" style="rounded=0;whiteSpace=wrap;html=1;fontSize=10;dashed=1;dashPattern=1 4;strokeColor=#FF0000;movable=1;resizable=1;rotatable=1;deletable=1;editable=1;locked=0;connectable=1;" parent="UfaGl24B7d4U6y9Angqy-2" vertex="1">
          <mxGeometry x="10" y="170" width="120" height="50" as="geometry" />
        </mxCell>
        <mxCell id="p1Waak-dvDyeZgedQE-R-0" value="" style="group" parent="WIyWlLk6GJQsqaUBKTNV-1" vertex="1" connectable="0">
          <mxGeometry x="-130" y="410" width="842" height="480" as="geometry" />
        </mxCell>
        <mxCell id="aYfPXwyvseCjfm_76mP0-206" value="" style="rounded=0;whiteSpace=wrap;html=1;" parent="p1Waak-dvDyeZgedQE-R-0" vertex="1">
          <mxGeometry width="842" height="480" as="geometry" />
        </mxCell>
        <mxCell id="aYfPXwyvseCjfm_76mP0-46" style="edgeStyle=orthogonalEdgeStyle;rounded=0;orthogonalLoop=1;jettySize=auto;html=1;exitX=1;exitY=0.5;exitDx=0;exitDy=0;" parent="p1Waak-dvDyeZgedQE-R-0" source="aYfPXwyvseCjfm_76mP0-47" target="aYfPXwyvseCjfm_76mP0-49" edge="1">
          <mxGeometry relative="1" as="geometry" />
        </mxCell>
        <mxCell id="aYfPXwyvseCjfm_76mP0-47" value="&lt;font style=&quot;font-size: 16px;&quot;&gt;Application&lt;/font&gt;" style="rounded=1;whiteSpace=wrap;html=1;fillColor=#dae8fc;strokeColor=#6c8ebf;" parent="p1Waak-dvDyeZgedQE-R-0" vertex="1">
          <mxGeometry x="9.998208955223873" y="160" width="103.70149253731343" height="64" as="geometry" />
        </mxCell>
        <mxCell id="aYfPXwyvseCjfm_76mP0-48" style="edgeStyle=orthogonalEdgeStyle;rounded=0;orthogonalLoop=1;jettySize=auto;html=1;exitX=1;exitY=0.5;exitDx=0;exitDy=0;entryX=0;entryY=0.5;entryDx=0;entryDy=0;" parent="p1Waak-dvDyeZgedQE-R-0" source="aYfPXwyvseCjfm_76mP0-49" target="aYfPXwyvseCjfm_76mP0-51" edge="1">
          <mxGeometry relative="1" as="geometry" />
        </mxCell>
        <mxCell id="aYfPXwyvseCjfm_76mP0-49" value="&lt;font style=&quot;font-size: 16px;&quot;&gt;&lt;b&gt;NIA&lt;/b&gt;&lt;/font&gt;&lt;div&gt;&lt;font style=&quot;font-size: 16px;&quot;&gt;&lt;b&gt;Monitor&lt;/b&gt;&lt;/font&gt;&lt;/div&gt;" style="rounded=1;whiteSpace=wrap;html=1;fillColor=#f8cecc;strokeColor=#b85450;" parent="p1Waak-dvDyeZgedQE-R-0" vertex="1">
          <mxGeometry x="248.55985074626864" y="160" width="103.70149253731343" height="64" as="geometry" />
        </mxCell>
        <mxCell id="aYfPXwyvseCjfm_76mP0-50" style="edgeStyle=orthogonalEdgeStyle;rounded=0;orthogonalLoop=1;jettySize=auto;html=1;exitX=1;exitY=0.5;exitDx=0;exitDy=0;" parent="p1Waak-dvDyeZgedQE-R-0" source="aYfPXwyvseCjfm_76mP0-51" target="aYfPXwyvseCjfm_76mP0-53" edge="1">
          <mxGeometry relative="1" as="geometry" />
        </mxCell>
        <mxCell id="aYfPXwyvseCjfm_76mP0-51" value="&lt;font style=&quot;font-size: 16px;&quot;&gt;&lt;b&gt;NIA&amp;nbsp;&lt;/b&gt;&lt;/font&gt;&lt;div&gt;&lt;font style=&quot;font-size: 16px;&quot;&gt;&lt;b&gt;Agent&lt;/b&gt;&lt;/font&gt;&lt;/div&gt;" style="rounded=1;whiteSpace=wrap;html=1;fillColor=#f8cecc;strokeColor=#b85450;" parent="p1Waak-dvDyeZgedQE-R-0" vertex="1">
          <mxGeometry x="508.29641791044776" y="160" width="103.70149253731343" height="64" as="geometry" />
        </mxCell>
        <mxCell id="aYfPXwyvseCjfm_76mP0-52" style="edgeStyle=orthogonalEdgeStyle;rounded=0;orthogonalLoop=1;jettySize=auto;html=1;exitX=0.5;exitY=1;exitDx=0;exitDy=0;entryX=0.5;entryY=1;entryDx=0;entryDy=0;dashed=1;" parent="p1Waak-dvDyeZgedQE-R-0" source="aYfPXwyvseCjfm_76mP0-53" target="aYfPXwyvseCjfm_76mP0-47" edge="1">
          <mxGeometry relative="1" as="geometry">
            <Array as="points">
              <mxPoint x="724.4344776119402" y="245.33333333333337" />
              <mxPoint x="109.13895522388059" y="245.33333333333337" />
            </Array>
          </mxGeometry>
        </mxCell>
        <mxCell id="aYfPXwyvseCjfm_76mP0-53" value="&lt;font style=&quot;font-size: 16px;&quot;&gt;Resource&lt;/font&gt;" style="rounded=1;whiteSpace=wrap;html=1;fillColor=#dae8fc;strokeColor=#6c8ebf;" parent="p1Waak-dvDyeZgedQE-R-0" vertex="1">
          <mxGeometry x="722.2937313432835" y="160" width="103.70149253731343" height="64" as="geometry" />
        </mxCell>
        <mxCell id="aYfPXwyvseCjfm_76mP0-54" value="&lt;font style=&quot;font-size: 11px;&quot;&gt;request access resource&lt;/font&gt;" style="text;html=1;align=center;verticalAlign=middle;whiteSpace=wrap;rounded=0;fontSize=10;" parent="p1Waak-dvDyeZgedQE-R-0" vertex="1">
          <mxGeometry x="116" y="166" width="126.63" height="32" as="geometry" />
        </mxCell>
        <mxCell id="aYfPXwyvseCjfm_76mP0-55" value="&lt;font style=&quot;font-size: 11px;&quot;&gt;request HMAC with signature&lt;/font&gt;" style="text;html=1;align=center;verticalAlign=middle;whiteSpace=wrap;rounded=0;fontSize=10;" parent="p1Waak-dvDyeZgedQE-R-0" vertex="1">
          <mxGeometry x="353.65" y="165" width="152.35" height="32" as="geometry" />
        </mxCell>
        <mxCell id="aYfPXwyvseCjfm_76mP0-56" value="&lt;font style=&quot;font-size: 11px;&quot;&gt;request with&amp;nbsp;&lt;/font&gt;&lt;span style=&quot;font-size: 11px; background-color: transparent; color: light-dark(rgb(0, 0, 0), rgb(255, 255, 255));&quot;&gt;credential&lt;/span&gt;&lt;div&gt;&lt;span style=&quot;font-size: 11px; background-color: transparent; color: light-dark(rgb(0, 0, 0), rgb(255, 255, 255));&quot;&gt;obfuscated&lt;/span&gt;&lt;/div&gt;" style="text;html=1;align=center;verticalAlign=middle;whiteSpace=wrap;rounded=0;fontSize=10;" parent="p1Waak-dvDyeZgedQE-R-0" vertex="1">
          <mxGeometry x="370.35" y="192" width="118.96" height="32" as="geometry" />
        </mxCell>
        <mxCell id="aYfPXwyvseCjfm_76mP0-57" value="&lt;font style=&quot;font-size: 11px;&quot;&gt;validate HMAC&amp;nbsp;&lt;/font&gt;" style="text;html=1;align=center;verticalAlign=middle;whiteSpace=wrap;rounded=0;fontSize=10;" parent="p1Waak-dvDyeZgedQE-R-0" vertex="1">
          <mxGeometry x="612.5311940298507" y="166.39999999999998" width="102.54925373134327" height="32" as="geometry" />
        </mxCell>
        <mxCell id="aYfPXwyvseCjfm_76mP0-58" value="&lt;font style=&quot;font-size: 11px;&quot;&gt;request resource&lt;/font&gt;" style="text;html=1;align=center;verticalAlign=middle;whiteSpace=wrap;rounded=0;fontSize=10;" parent="p1Waak-dvDyeZgedQE-R-0" vertex="1">
          <mxGeometry x="611.9989552238806" y="187.73333333333335" width="102.54925373134327" height="27.733333333333334" as="geometry" />
        </mxCell>
        <mxCell id="aYfPXwyvseCjfm_76mP0-59" value="&lt;font style=&quot;font-size: 11px;&quot;&gt;active connection&lt;/font&gt;" style="text;html=1;align=center;verticalAlign=middle;whiteSpace=wrap;rounded=0;fontSize=10;" parent="p1Waak-dvDyeZgedQE-R-0" vertex="1">
          <mxGeometry x="378.54925373134324" y="238.93666666666672" width="102.54925373134327" height="32" as="geometry" />
        </mxCell>
        <mxCell id="aYfPXwyvseCjfm_76mP0-102" style="edgeStyle=orthogonalEdgeStyle;rounded=0;orthogonalLoop=1;jettySize=auto;html=1;exitX=0.5;exitY=1;exitDx=0;exitDy=0;entryX=0.5;entryY=0;entryDx=0;entryDy=0;dashed=1;dashPattern=1 2;endArrow=none;startFill=0;" parent="p1Waak-dvDyeZgedQE-R-0" source="aYfPXwyvseCjfm_76mP0-60" target="aYfPXwyvseCjfm_76mP0-47" edge="1">
          <mxGeometry relative="1" as="geometry" />
        </mxCell>
        <mxCell id="aYfPXwyvseCjfm_76mP0-60" value="&lt;font style=&quot;font-size: 11px;&quot;&gt;non-interactive process generated by a request from the client&lt;/font&gt;" style="rounded=0;whiteSpace=wrap;html=1;fontSize=10;dashed=1;dashPattern=1 2;strokeColor=default;" parent="p1Waak-dvDyeZgedQE-R-0" vertex="1">
          <mxGeometry x="40.00462686567164" y="85.33333333333331" width="138.2686567164179" height="42.666666666666664" as="geometry" />
        </mxCell>
        <mxCell id="aYfPXwyvseCjfm_76mP0-61" style="edgeStyle=orthogonalEdgeStyle;rounded=0;orthogonalLoop=1;jettySize=auto;html=1;exitX=0.5;exitY=1;exitDx=0;exitDy=0;entryX=0.5;entryY=0;entryDx=0;entryDy=0;dashed=1;dashPattern=1 2;endArrow=none;startFill=0;" parent="p1Waak-dvDyeZgedQE-R-0" source="aYfPXwyvseCjfm_76mP0-62" target="aYfPXwyvseCjfm_76mP0-49" edge="1">
          <mxGeometry relative="1" as="geometry" />
        </mxCell>
        <mxCell id="aYfPXwyvseCjfm_76mP0-65" style="edgeStyle=orthogonalEdgeStyle;rounded=0;orthogonalLoop=1;jettySize=auto;html=1;entryX=0.5;entryY=1;entryDx=0;entryDy=0;dashed=1;dashPattern=1 2;endArrow=none;startFill=0;" parent="p1Waak-dvDyeZgedQE-R-0" source="aYfPXwyvseCjfm_76mP0-67" target="aYfPXwyvseCjfm_76mP0-49" edge="1">
          <mxGeometry relative="1" as="geometry" />
        </mxCell>
        <mxCell id="aYfPXwyvseCjfm_76mP0-67" value="&lt;b&gt;&lt;font style=&quot;font-size: 12px;&quot;&gt;obfuscation algorithm&lt;/font&gt;&lt;/b&gt;" style="rounded=0;whiteSpace=wrap;html=1;fontSize=10;dashed=1;dashPattern=1 2;strokeColor=default;verticalAlign=top;" parent="p1Waak-dvDyeZgedQE-R-0" vertex="1">
          <mxGeometry x="212.26432835820893" y="270.9333333333334" width="176.29253731343283" height="97.06666666666666" as="geometry" />
        </mxCell>
        <mxCell id="aYfPXwyvseCjfm_76mP0-70" value="&lt;font style=&quot;font-size: 16px;&quot;&gt;Password Vault&lt;/font&gt;" style="ellipse;whiteSpace=wrap;html=1;fillColor=#d5e8d4;strokeColor=#82b366;" parent="p1Waak-dvDyeZgedQE-R-0" vertex="1">
          <mxGeometry x="256.6255223880597" y="394.66666666666674" width="89.29850746268656" height="74.66666666666667" as="geometry" />
        </mxCell>
        <mxCell id="aYfPXwyvseCjfm_76mP0-101" style="edgeStyle=orthogonalEdgeStyle;rounded=0;orthogonalLoop=1;jettySize=auto;html=1;entryX=0.5;entryY=0;entryDx=0;entryDy=0;dashed=1;dashPattern=1 2;endArrow=none;startFill=0;" parent="p1Waak-dvDyeZgedQE-R-0" source="aYfPXwyvseCjfm_76mP0-94" target="aYfPXwyvseCjfm_76mP0-70" edge="1">
          <mxGeometry relative="1" as="geometry" />
        </mxCell>
        <mxCell id="aYfPXwyvseCjfm_76mP0-94" value="&lt;div&gt;&lt;font style=&quot;font-size: 11px;&quot;&gt;obfuscation with credential data and&amp;nbsp;&lt;span style=&quot;background-color: transparent; color: light-dark(rgb(0, 0, 0), rgb(255, 255, 255));&quot;&gt;HOTP based on setup sequence&amp;nbsp;&lt;/span&gt;&lt;span style=&quot;background-color: transparent; color: light-dark(rgb(0, 0, 0), rgb(255, 255, 255));&quot;&gt;stores the obfuscated credential&lt;/span&gt;&lt;/font&gt;&lt;/div&gt;" style="rounded=0;whiteSpace=wrap;html=1;strokeWidth=0;" parent="p1Waak-dvDyeZgedQE-R-0" vertex="1">
          <mxGeometry x="218.8205671641791" y="294.4" width="163.7561791044776" height="66.13333333333333" as="geometry" />
        </mxCell>
        <mxCell id="aYfPXwyvseCjfm_76mP0-99" style="edgeStyle=orthogonalEdgeStyle;rounded=0;orthogonalLoop=1;jettySize=auto;html=1;exitX=0.5;exitY=1;exitDx=0;exitDy=0;entryX=0.461;entryY=-0.025;entryDx=0;entryDy=0;entryPerimeter=0;dashed=1;dashPattern=1 2;endArrow=none;startFill=0;" parent="p1Waak-dvDyeZgedQE-R-0" source="aYfPXwyvseCjfm_76mP0-51" target="aYfPXwyvseCjfm_76mP0-69" edge="1">
          <mxGeometry relative="1" as="geometry" />
        </mxCell>
        <mxCell id="aYfPXwyvseCjfm_76mP0-69" value="&lt;b&gt;&lt;font style=&quot;font-size: 12px;&quot;&gt;deobfuscation algorithm&lt;/font&gt;&lt;/b&gt;" style="rounded=0;whiteSpace=wrap;html=1;fontSize=10;dashed=1;dashPattern=1 2;strokeColor=default;verticalAlign=top;" parent="p1Waak-dvDyeZgedQE-R-0" vertex="1">
          <mxGeometry x="475.9837313432835" y="270.8666666666667" width="182.05373134328357" height="82.13333333333333" as="geometry" />
        </mxCell>
        <mxCell id="aYfPXwyvseCjfm_76mP0-95" value="&lt;div&gt;&lt;font style=&quot;font-size: 11px;&quot;&gt;deobfuscation with credential obfuscation&amp;nbsp;&lt;span style=&quot;background-color: transparent; color: light-dark(rgb(0, 0, 0), rgb(255, 255, 255));&quot;&gt;and HOTP based on setup sequence&lt;/span&gt;&lt;/font&gt;&lt;/div&gt;" style="rounded=0;whiteSpace=wrap;html=1;strokeWidth=0;" parent="p1Waak-dvDyeZgedQE-R-0" vertex="1">
          <mxGeometry x="482.77776119402984" y="294.17066666666665" width="163.7561791044776" height="49.16266666666667" as="geometry" />
        </mxCell>
        <mxCell id="UfaGl24B7d4U6y9Angqy-45" style="edgeStyle=orthogonalEdgeStyle;rounded=0;orthogonalLoop=1;jettySize=auto;html=1;dashed=1;dashPattern=1 2;endArrow=none;startFill=0;" parent="p1Waak-dvDyeZgedQE-R-0" source="aYfPXwyvseCjfm_76mP0-92" target="aYfPXwyvseCjfm_76mP0-51" edge="1">
          <mxGeometry relative="1" as="geometry" />
        </mxCell>
        <mxCell id="aYfPXwyvseCjfm_76mP0-92" value="&lt;b&gt;&lt;font style=&quot;font-size: 12px;&quot;&gt;&amp;nbsp;authentication algorithm&lt;/font&gt;&lt;/b&gt;" style="rounded=0;whiteSpace=wrap;html=1;fontSize=10;dashed=1;dashPattern=1 2;strokeColor=default;fillColor=default;verticalAlign=top;align=center;" parent="p1Waak-dvDyeZgedQE-R-0" vertex="1">
          <mxGeometry x="487.28820895522387" y="27" width="176.29253731343283" height="96" as="geometry" />
        </mxCell>
        <mxCell id="aYfPXwyvseCjfm_76mP0-93" value="&lt;div&gt;&lt;font style=&quot;font-size: 11px;&quot;&gt;OTP, HTOP and HMAC-based&lt;/font&gt;&lt;/div&gt;&lt;div&gt;&lt;font style=&quot;font-size: 11px;&quot;&gt;&lt;font style=&quot;&quot;&gt;memory generated secret key and counter&amp;nbsp;&lt;/font&gt;&lt;span style=&quot;background-color: transparent; color: light-dark(rgb(0, 0, 0), rgb(255, 255, 255));&quot;&gt;generate HMAC B and compares it with HMAC A&lt;/span&gt;&lt;/font&gt;&lt;/div&gt;" style="rounded=0;whiteSpace=wrap;html=1;strokeWidth=0;" parent="p1Waak-dvDyeZgedQE-R-0" vertex="1">
          <mxGeometry x="493.0494029850746" y="50.46666666666667" width="165.9223880597015" height="61.86666666666667" as="geometry" />
        </mxCell>
        <mxCell id="aYfPXwyvseCjfm_76mP0-62" value="&lt;b&gt;&lt;font style=&quot;font-size: 12px;&quot;&gt;&amp;nbsp;authentication algorithm&lt;/font&gt;&lt;/b&gt;" style="rounded=0;whiteSpace=wrap;html=1;fontSize=10;dashed=1;dashPattern=1 2;strokeColor=default;fillColor=default;verticalAlign=top;align=center;" parent="p1Waak-dvDyeZgedQE-R-0" vertex="1">
          <mxGeometry x="212.68820895522387" y="32" width="176.29253731343283" height="85.33333333333333" as="geometry" />
        </mxCell>
        <mxCell id="aYfPXwyvseCjfm_76mP0-91" value="&lt;div&gt;&lt;font style=&quot;font-size: 11px;&quot;&gt;OTP, HTOP and HMAC-based&lt;/font&gt;&lt;/div&gt;&lt;div&gt;&lt;font style=&quot;font-size: 11px;&quot;&gt;&lt;font style=&quot;&quot;&gt;memory generated secret key and counter&amp;nbsp;&lt;/font&gt;&lt;span style=&quot;background-color: transparent; color: light-dark(rgb(0, 0, 0), rgb(255, 255, 255));&quot;&gt;generate HMAC A&lt;/span&gt;&lt;/font&gt;&lt;/div&gt;" style="rounded=0;whiteSpace=wrap;html=1;strokeWidth=0;" parent="p1Waak-dvDyeZgedQE-R-0" vertex="1">
          <mxGeometry x="218.4494029850746" y="55.46666666666667" width="166.0606567164179" height="53.333333333333336" as="geometry" />
        </mxCell>
        <mxCell id="TwV2lLXyqjBjfVmeH-oS-0" value="" style="group" vertex="1" connectable="0" parent="WIyWlLk6GJQsqaUBKTNV-1">
          <mxGeometry x="1380" y="860" width="830" height="370" as="geometry" />
        </mxCell>
        <mxCell id="UfaGl24B7d4U6y9Angqy-4" value="" style="rounded=0;whiteSpace=wrap;html=1;movable=1;resizable=1;rotatable=1;deletable=1;editable=1;locked=0;connectable=1;" parent="TwV2lLXyqjBjfVmeH-oS-0" vertex="1">
          <mxGeometry width="830" height="370" as="geometry" />
        </mxCell>
        <mxCell id="UfaGl24B7d4U6y9Angqy-5" style="edgeStyle=orthogonalEdgeStyle;rounded=0;orthogonalLoop=1;jettySize=auto;html=1;exitX=1;exitY=0.5;exitDx=0;exitDy=0;movable=0;resizable=0;rotatable=0;deletable=0;editable=0;locked=1;connectable=0;" parent="TwV2lLXyqjBjfVmeH-oS-0" source="UfaGl24B7d4U6y9Angqy-7" target="UfaGl24B7d4U6y9Angqy-9" edge="1">
          <mxGeometry relative="1" as="geometry" />
        </mxCell>
        <mxCell id="UfaGl24B7d4U6y9Angqy-7" value="&lt;font style=&quot;font-size: 16px;&quot;&gt;GLPI&lt;/font&gt;" style="rounded=1;whiteSpace=wrap;html=1;fillColor=#dae8fc;strokeColor=#6c8ebf;movable=1;resizable=1;rotatable=1;deletable=1;editable=1;locked=0;connectable=1;" parent="TwV2lLXyqjBjfVmeH-oS-0" vertex="1">
          <mxGeometry x="100" y="95" width="90" height="60" as="geometry" />
        </mxCell>
        <mxCell id="UfaGl24B7d4U6y9Angqy-8" style="edgeStyle=orthogonalEdgeStyle;rounded=0;orthogonalLoop=1;jettySize=auto;html=1;exitX=1;exitY=0.5;exitDx=0;exitDy=0;entryX=0;entryY=0.5;entryDx=0;entryDy=0;movable=0;resizable=0;rotatable=0;deletable=0;editable=0;locked=1;connectable=0;" parent="TwV2lLXyqjBjfVmeH-oS-0" source="UfaGl24B7d4U6y9Angqy-9" target="UfaGl24B7d4U6y9Angqy-11" edge="1">
          <mxGeometry relative="1" as="geometry" />
        </mxCell>
        <mxCell id="UfaGl24B7d4U6y9Angqy-9" value="&lt;font style=&quot;font-size: 16px;&quot;&gt;&lt;b&gt;NIA&lt;/b&gt;&lt;/font&gt;&lt;div&gt;&lt;font style=&quot;font-size: 16px;&quot;&gt;&lt;b&gt;Monitor&lt;/b&gt;&lt;/font&gt;&lt;/div&gt;" style="rounded=1;whiteSpace=wrap;html=1;fillColor=#f8cecc;strokeColor=#b85450;movable=1;resizable=1;rotatable=1;deletable=1;editable=1;locked=0;connectable=1;" parent="TwV2lLXyqjBjfVmeH-oS-0" vertex="1">
          <mxGeometry x="283" y="95" width="90" height="60" as="geometry" />
        </mxCell>
        <mxCell id="UfaGl24B7d4U6y9Angqy-10" style="edgeStyle=orthogonalEdgeStyle;rounded=0;orthogonalLoop=1;jettySize=auto;html=1;exitX=1;exitY=0.5;exitDx=0;exitDy=0;movable=0;resizable=0;rotatable=0;deletable=0;editable=0;locked=1;connectable=0;" parent="TwV2lLXyqjBjfVmeH-oS-0" source="UfaGl24B7d4U6y9Angqy-11" target="UfaGl24B7d4U6y9Angqy-13" edge="1">
          <mxGeometry relative="1" as="geometry" />
        </mxCell>
        <mxCell id="UfaGl24B7d4U6y9Angqy-11" value="&lt;font style=&quot;font-size: 16px;&quot;&gt;&lt;b&gt;NIA&amp;nbsp;&lt;/b&gt;&lt;/font&gt;&lt;div&gt;&lt;font style=&quot;font-size: 16px;&quot;&gt;&lt;b&gt;Agent&lt;/b&gt;&lt;/font&gt;&lt;/div&gt;" style="rounded=1;whiteSpace=wrap;html=1;fillColor=#f8cecc;strokeColor=#b85450;movable=1;resizable=1;rotatable=1;deletable=1;editable=1;locked=0;connectable=1;" parent="TwV2lLXyqjBjfVmeH-oS-0" vertex="1">
          <mxGeometry x="530" y="95" width="90" height="60" as="geometry" />
        </mxCell>
        <mxCell id="p1Waak-dvDyeZgedQE-R-4" style="edgeStyle=orthogonalEdgeStyle;rounded=0;orthogonalLoop=1;jettySize=auto;html=1;entryX=0.5;entryY=1;entryDx=0;entryDy=0;dashed=1;" parent="TwV2lLXyqjBjfVmeH-oS-0" source="UfaGl24B7d4U6y9Angqy-13" target="UfaGl24B7d4U6y9Angqy-7" edge="1">
          <mxGeometry relative="1" as="geometry">
            <Array as="points">
              <mxPoint x="775" y="180" />
              <mxPoint x="145" y="180" />
            </Array>
          </mxGeometry>
        </mxCell>
        <mxCell id="UfaGl24B7d4U6y9Angqy-13" value="&lt;font style=&quot;font-size: 16px;&quot;&gt;MariaDB&lt;/font&gt;" style="rounded=1;whiteSpace=wrap;html=1;fillColor=#dae8fc;strokeColor=#6c8ebf;movable=1;resizable=1;rotatable=1;deletable=1;editable=1;locked=0;connectable=1;" parent="TwV2lLXyqjBjfVmeH-oS-0" vertex="1">
          <mxGeometry x="730" y="95" width="90" height="60" as="geometry" />
        </mxCell>
        <mxCell id="UfaGl24B7d4U6y9Angqy-14" value="request access resource" style="text;html=1;align=center;verticalAlign=middle;whiteSpace=wrap;rounded=0;fontSize=11;movable=1;resizable=1;rotatable=1;deletable=1;editable=1;locked=0;connectable=1;" parent="TwV2lLXyqjBjfVmeH-oS-0" vertex="1">
          <mxGeometry x="190" y="95" width="89" height="30" as="geometry" />
        </mxCell>
        <mxCell id="UfaGl24B7d4U6y9Angqy-15" value="request HMAC with signature" style="text;html=1;align=center;verticalAlign=middle;whiteSpace=wrap;rounded=0;fontSize=11;movable=1;resizable=1;rotatable=1;deletable=1;editable=1;locked=0;connectable=1;" parent="TwV2lLXyqjBjfVmeH-oS-0" vertex="1">
          <mxGeometry x="370.75" y="103" width="155" height="21" as="geometry" />
        </mxCell>
        <mxCell id="UfaGl24B7d4U6y9Angqy-16" value="request with&amp;nbsp;&lt;span style=&quot;background-color: transparent; color: light-dark(rgb(0, 0, 0), rgb(255, 255, 255));&quot;&gt;credential obfuscated&lt;/span&gt;" style="text;html=1;align=center;verticalAlign=middle;whiteSpace=wrap;rounded=0;fontSize=11;movable=1;resizable=1;rotatable=1;deletable=1;editable=1;locked=0;connectable=1;" parent="TwV2lLXyqjBjfVmeH-oS-0" vertex="1">
          <mxGeometry x="371.75" y="129" width="140" height="30" as="geometry" />
        </mxCell>
        <mxCell id="UfaGl24B7d4U6y9Angqy-17" value="validate HMAC&amp;nbsp;" style="text;html=1;align=center;verticalAlign=middle;whiteSpace=wrap;rounded=0;fontSize=11;movable=1;resizable=1;rotatable=1;deletable=1;editable=1;locked=0;connectable=1;" parent="TwV2lLXyqjBjfVmeH-oS-0" vertex="1">
          <mxGeometry x="627" y="102" width="89" height="27" as="geometry" />
        </mxCell>
        <mxCell id="UfaGl24B7d4U6y9Angqy-18" value="request resource" style="text;html=1;align=center;verticalAlign=middle;whiteSpace=wrap;rounded=0;fontSize=11;movable=1;resizable=1;rotatable=1;deletable=1;editable=1;locked=0;connectable=1;" parent="TwV2lLXyqjBjfVmeH-oS-0" vertex="1">
          <mxGeometry x="624" y="122" width="89" height="26" as="geometry" />
        </mxCell>
        <mxCell id="UfaGl24B7d4U6y9Angqy-19" value="active connection" style="text;html=1;align=center;verticalAlign=middle;whiteSpace=wrap;rounded=0;fontSize=11;movable=1;resizable=1;rotatable=1;deletable=1;editable=1;locked=0;connectable=1;" parent="TwV2lLXyqjBjfVmeH-oS-0" vertex="1">
          <mxGeometry x="397.25" y="174" width="89" height="30" as="geometry" />
        </mxCell>
        <mxCell id="UfaGl24B7d4U6y9Angqy-20" style="edgeStyle=orthogonalEdgeStyle;rounded=0;orthogonalLoop=1;jettySize=auto;html=1;entryX=0.5;entryY=0;entryDx=0;entryDy=0;dashed=1;dashPattern=1 2;endArrow=none;startFill=0;movable=1;resizable=1;rotatable=1;deletable=1;editable=1;locked=0;connectable=1;" parent="TwV2lLXyqjBjfVmeH-oS-0" source="UfaGl24B7d4U6y9Angqy-21" target="UfaGl24B7d4U6y9Angqy-7" edge="1">
          <mxGeometry relative="1" as="geometry" />
        </mxCell>
        <mxCell id="UfaGl24B7d4U6y9Angqy-21" value="&lt;b&gt;&lt;font style=&quot;font-size: 11px;&quot;&gt;non-interactive process generated by a request from the client&lt;/font&gt;&lt;/b&gt;" style="rounded=0;whiteSpace=wrap;html=1;fontSize=10;dashed=1;dashPattern=1 2;strokeColor=default;movable=1;resizable=1;rotatable=1;deletable=1;editable=1;locked=0;connectable=1;" parent="TwV2lLXyqjBjfVmeH-oS-0" vertex="1">
          <mxGeometry x="102" y="15" width="128" height="50" as="geometry" />
        </mxCell>
        <mxCell id="UfaGl24B7d4U6y9Angqy-22" style="edgeStyle=orthogonalEdgeStyle;rounded=0;orthogonalLoop=1;jettySize=auto;html=1;exitX=0.5;exitY=1;exitDx=0;exitDy=0;entryX=0.5;entryY=0;entryDx=0;entryDy=0;dashed=1;dashPattern=1 2;endArrow=none;startFill=0;movable=1;resizable=1;rotatable=1;deletable=1;editable=1;locked=0;connectable=1;" parent="TwV2lLXyqjBjfVmeH-oS-0" source="UfaGl24B7d4U6y9Angqy-23" target="UfaGl24B7d4U6y9Angqy-9" edge="1">
          <mxGeometry relative="1" as="geometry" />
        </mxCell>
        <mxCell id="UfaGl24B7d4U6y9Angqy-23" value="&lt;b&gt;&lt;font style=&quot;font-size: 11px;&quot;&gt;authentication algorithm&lt;/font&gt;&lt;/b&gt;" style="rounded=0;whiteSpace=wrap;html=1;fontSize=10;dashed=1;dashPattern=1 2;strokeColor=default;movable=1;resizable=1;rotatable=1;deletable=1;editable=1;locked=0;connectable=1;" parent="TwV2lLXyqjBjfVmeH-oS-0" vertex="1">
          <mxGeometry x="267" y="16" width="120" height="40" as="geometry" />
        </mxCell>
        <mxCell id="UfaGl24B7d4U6y9Angqy-24" style="edgeStyle=orthogonalEdgeStyle;rounded=0;orthogonalLoop=1;jettySize=auto;html=1;exitX=0.5;exitY=1;exitDx=0;exitDy=0;entryX=0.5;entryY=0;entryDx=0;entryDy=0;endArrow=none;startFill=0;dashed=1;dashPattern=1 2;movable=1;resizable=1;rotatable=1;deletable=1;editable=1;locked=0;connectable=1;" parent="TwV2lLXyqjBjfVmeH-oS-0" source="UfaGl24B7d4U6y9Angqy-25" target="UfaGl24B7d4U6y9Angqy-11" edge="1">
          <mxGeometry relative="1" as="geometry" />
        </mxCell>
        <mxCell id="UfaGl24B7d4U6y9Angqy-25" value="&lt;b&gt;&lt;font style=&quot;font-size: 11px;&quot;&gt;authentication algorithm&lt;/font&gt;&lt;/b&gt;" style="rounded=0;whiteSpace=wrap;html=1;fontSize=10;dashed=1;dashPattern=1 2;strokeColor=default;movable=1;resizable=1;rotatable=1;deletable=1;editable=1;locked=0;connectable=1;" parent="TwV2lLXyqjBjfVmeH-oS-0" vertex="1">
          <mxGeometry x="515" y="15" width="120" height="40" as="geometry" />
        </mxCell>
        <mxCell id="UfaGl24B7d4U6y9Angqy-26" style="edgeStyle=orthogonalEdgeStyle;rounded=0;orthogonalLoop=1;jettySize=auto;html=1;entryX=0.5;entryY=1;entryDx=0;entryDy=0;dashed=1;dashPattern=1 2;endArrow=none;startFill=0;movable=1;resizable=1;rotatable=1;deletable=1;editable=1;locked=0;connectable=1;" parent="TwV2lLXyqjBjfVmeH-oS-0" source="UfaGl24B7d4U6y9Angqy-29" target="UfaGl24B7d4U6y9Angqy-9" edge="1">
          <mxGeometry relative="1" as="geometry" />
        </mxCell>
        <mxCell id="UfaGl24B7d4U6y9Angqy-27" style="edgeStyle=orthogonalEdgeStyle;rounded=0;orthogonalLoop=1;jettySize=auto;html=1;exitX=0.5;exitY=1;exitDx=0;exitDy=0;entryX=0.5;entryY=0;entryDx=0;entryDy=0;dashed=1;dashPattern=1 2;endArrow=none;startFill=0;movable=1;resizable=1;rotatable=1;deletable=1;editable=1;locked=0;connectable=1;" parent="TwV2lLXyqjBjfVmeH-oS-0" source="UfaGl24B7d4U6y9Angqy-29" target="UfaGl24B7d4U6y9Angqy-33" edge="1">
          <mxGeometry relative="1" as="geometry" />
        </mxCell>
        <mxCell id="UfaGl24B7d4U6y9Angqy-29" value="&lt;b&gt;&lt;font style=&quot;font-size: 11px;&quot;&gt;obfuscation algorithm&lt;/font&gt;&lt;/b&gt;" style="rounded=0;whiteSpace=wrap;html=1;fontSize=10;dashed=1;dashPattern=1 2;strokeColor=default;movable=1;resizable=1;rotatable=1;deletable=1;editable=1;locked=0;connectable=1;" parent="TwV2lLXyqjBjfVmeH-oS-0" vertex="1">
          <mxGeometry x="276.5" y="204" width="103" height="40" as="geometry" />
        </mxCell>
        <mxCell id="UfaGl24B7d4U6y9Angqy-30" style="edgeStyle=orthogonalEdgeStyle;rounded=0;orthogonalLoop=1;jettySize=auto;html=1;entryX=0.5;entryY=1;entryDx=0;entryDy=0;dashed=1;dashPattern=1 2;endArrow=none;startFill=0;movable=1;resizable=1;rotatable=1;deletable=1;editable=1;locked=0;connectable=1;" parent="TwV2lLXyqjBjfVmeH-oS-0" source="UfaGl24B7d4U6y9Angqy-32" target="UfaGl24B7d4U6y9Angqy-11" edge="1">
          <mxGeometry relative="1" as="geometry" />
        </mxCell>
        <mxCell id="UfaGl24B7d4U6y9Angqy-32" value="&lt;b&gt;&lt;font style=&quot;font-size: 11px;&quot;&gt;deobfuscation algorithm&lt;/font&gt;&lt;/b&gt;" style="rounded=0;whiteSpace=wrap;html=1;fontSize=10;dashed=1;dashPattern=1 2;strokeColor=default;movable=1;resizable=1;rotatable=1;deletable=1;editable=1;locked=0;connectable=1;" parent="TwV2lLXyqjBjfVmeH-oS-0" vertex="1">
          <mxGeometry x="515" y="204" width="120" height="40" as="geometry" />
        </mxCell>
        <mxCell id="UfaGl24B7d4U6y9Angqy-33" value="&lt;font style=&quot;font-size: 15px;&quot;&gt;Password Vault&lt;/font&gt;" style="ellipse;whiteSpace=wrap;html=1;fillColor=#d5e8d4;strokeColor=#82b366;movable=1;resizable=1;rotatable=1;deletable=1;editable=1;locked=0;connectable=1;" parent="TwV2lLXyqjBjfVmeH-oS-0" vertex="1">
          <mxGeometry x="289.25" y="285" width="77.5" height="70" as="geometry" />
        </mxCell>
        <mxCell id="UfaGl24B7d4U6y9Angqy-34" value="get credential" style="text;html=1;align=center;verticalAlign=middle;whiteSpace=wrap;rounded=0;fontSize=11;movable=1;resizable=1;rotatable=1;deletable=1;editable=1;locked=0;connectable=1;" parent="TwV2lLXyqjBjfVmeH-oS-0" vertex="1">
          <mxGeometry x="329" y="250" width="77" height="31" as="geometry" />
        </mxCell>
        <mxCell id="UfaGl24B7d4U6y9Angqy-35" style="edgeStyle=orthogonalEdgeStyle;rounded=0;orthogonalLoop=1;jettySize=auto;html=1;" parent="TwV2lLXyqjBjfVmeH-oS-0" source="UfaGl24B7d4U6y9Angqy-36" edge="1">
          <mxGeometry relative="1" as="geometry">
            <mxPoint x="100" y="125" as="targetPoint" />
          </mxGeometry>
        </mxCell>
        <mxCell id="UfaGl24B7d4U6y9Angqy-36" value="" style="outlineConnect=0;dashed=0;verticalLabelPosition=bottom;verticalAlign=top;align=center;html=1;shape=mxgraph.aws3.user;fillColor=#FF0000;gradientColor=none;" parent="TwV2lLXyqjBjfVmeH-oS-0" vertex="1">
          <mxGeometry x="10" y="104.5" width="30" height="41" as="geometry" />
        </mxCell>
        <mxCell id="UfaGl24B7d4U6y9Angqy-37" value="user" style="text;html=1;align=center;verticalAlign=middle;whiteSpace=wrap;rounded=0;fontSize=11;movable=1;resizable=1;rotatable=1;deletable=1;editable=1;locked=0;connectable=1;fontStyle=1" parent="TwV2lLXyqjBjfVmeH-oS-0" vertex="1">
          <mxGeometry x="3.25" y="138" width="43.5" height="32" as="geometry" />
        </mxCell>
      </root>
    </mxGraphModel>
  </diagram>
</mxfile>
